<?xml version="1.0" encoding="UTF-8" standalone="no"?>
<!-- Created with Inkscape (http://www.inkscape.org/) -->

<svg
   xmlns:dc="http://purl.org/dc/elements/1.1/"
   xmlns:cc="http://creativecommons.org/ns#"
   xmlns:rdf="http://www.w3.org/1999/02/22-rdf-syntax-ns#"
   xmlns:svg="http://www.w3.org/2000/svg"
   xmlns="http://www.w3.org/2000/svg"
   xmlns:sodipodi="http://sodipodi.sourceforge.net/DTD/sodipodi-0.dtd"
   xmlns:inkscape="http://www.inkscape.org/namespaces/inkscape"
   width="210mm"
   height="297mm"
   viewBox="0 0 210 297"
   version="1.1"
   id="svg8"
   inkscape:version="0.92.4 (5da689c313, 2019-01-14)"
   sodipodi:docname="stopBackground.svg">
  <defs
     id="defs2" />
  <sodipodi:namedview
     id="base"
     pagecolor="#ffffff"
     bordercolor="#666666"
     borderopacity="1.0"
     inkscape:pageopacity="0.0"
     inkscape:pageshadow="2"
     inkscape:zoom="2.8"
     inkscape:cx="133.72886"
     inkscape:cy="159.4137"
     inkscape:document-units="mm"
     inkscape:current-layer="layer1"
     showgrid="false"
     inkscape:window-width="1920"
     inkscape:window-height="1137"
     inkscape:window-x="-8"
     inkscape:window-y="-8"
     inkscape:window-maximized="1" />
  <metadata
     id="metadata5">
    <rdf:RDF>
      <cc:Work
         rdf:about="">
        <dc:format>image/svg+xml</dc:format>
        <dc:type
           rdf:resource="http://purl.org/dc/dcmitype/StillImage" />
        <dc:title></dc:title>
      </cc:Work>
    </rdf:RDF>
  </metadata>
  <g
     inkscape:label="Layer 1"
     inkscape:groupmode="layer"
     id="layer1">
    <path
       sodipodi:type="star"
       style="fill:#ffffff;stroke:#000000;stroke-width:1.10494843;stroke-opacity:1;stroke-miterlimit:4;stroke-dasharray:none;fill-opacity:1"
       id="path10"
       sodipodi:sides="8"
       sodipodi:cx="98.679436"
       sodipodi:cy="127.58215"
       sodipodi:r1="29.510988"
       sodipodi:r2="16.958984"
       sodipodi:arg1="-0.39421623"
       sodipodi:arg2="-0.001517159"
       inkscape:flatsided="true"
       inkscape:rounded="0.028833482"
       inkscape:randomized="0"
       d="m 125.92687,116.24744 c 0.25014,0.6013 0.28258,21.98464 0.0343,22.5867 -0.24831,0.60206 -15.34569,15.74531 -15.94699,15.99545 -0.6013,0.25013 -21.984645,0.28257 -22.586703,0.0343 -0.602058,-0.24831 -15.745307,-15.34568 -15.995444,-15.94698 -0.250137,-0.6013 -0.282579,-21.98465 -0.03427,-22.58671 0.248311,-0.60205 15.345681,-15.7453 15.946983,-15.99544 0.601302,-0.25014 21.984652,-0.28258 22.586702,-0.0343 0.60206,0.24831 15.74531,15.34568 15.99545,15.94699 z"
       transform="matrix(0.47854693,0.00163616,-0.00163372,0.47926018,-7.3268047,196.03428)"
       inkscape:transform-center-y="3.9097873e-06" />
    <path
       sodipodi:type="star"
       style="fill:#d01c8b;stroke:none;stroke-width:0.26458332;stroke-opacity:1;fill-opacity:1"
       id="path10-2"
       sodipodi:sides="8"
       sodipodi:cx="98.679436"
       sodipodi:cy="127.58215"
       sodipodi:r1="29.510988"
       sodipodi:r2="16.958984"
       sodipodi:arg1="-0.39421623"
       sodipodi:arg2="-0.001517159"
       inkscape:flatsided="true"
       inkscape:rounded="0.028833482"
       inkscape:randomized="0"
       d="m 125.92687,116.24744 c 0.25014,0.6013 0.28258,21.98464 0.0343,22.5867 -0.24831,0.60206 -15.34569,15.74531 -15.94699,15.99545 -0.6013,0.25013 -21.984645,0.28257 -22.586703,0.0343 -0.602058,-0.24831 -15.745307,-15.34568 -15.995444,-15.94698 -0.250137,-0.6013 -0.282579,-21.98465 -0.03427,-22.58671 0.248311,-0.60205 15.345681,-15.7453 15.946983,-15.99544 0.601302,-0.25014 21.984652,-0.28258 22.586702,-0.0343 0.60206,0.24831 15.74531,15.34568 15.99545,15.94699 z"
       transform="matrix(0.43161698,0.00147337,-0.00147334,0.43161698,-2.7162482,202.10048)" />
  </g>
</svg>
