<?xml version="1.0" encoding="utf-8"?>
<!-- Generator: Adobe Illustrator 24.2.0, SVG Export Plug-In . SVG Version: 6.00 Build 0)  -->
<svg version="1.1" id="activity" xmlns="http://www.w3.org/2000/svg" xmlns:xlink="http://www.w3.org/1999/xlink" x="0px" y="0px"
	 viewBox="0 0 184.3 184.3" style="enable-background:new 0 0 184.3 184.3;" xml:space="preserve">
<g>
	<path d="M102.6,15.6c-7.5,0-13.7,6.1-13.7,13.7s6.1,13.7,13.7,13.7s13.7-6.1,13.7-13.7S110.2,15.6,102.6,15.6"/>
	<path d="M91.8,46.7c-1.2,0-2.5,0.1-3.8,0.5L60.4,56c-0.6,0.2-1.2,0.5-1.7,0.8c-1,0.6-1.7,1.5-2.2,2.6L45.4,82.2
		c-1.2,2.9,0.2,6.3,3.1,7.5c0.7,0.3,1.4,0.4,2.2,0.4c2.3,0,4.4-1.3,5.3-3.6L66,66.2L79.2,62l-8.2,34.6c-0.1,0.6-0.2,1.2-0.3,1.8
		l-7.6,34.9l0,0c-0.1,0.1-0.2,0.2-0.3,0.3l-19.6,21.8c-3.3,3.6-3.4,8.9-0.1,11.8c1.4,1.2,3.1,1.8,4.9,1.8c2.4,0,5-1.1,6.9-3.2
		l19.7-21.8c0.5-0.6,1-1.2,1.4-1.9c1.2-1.5,2.2-3.5,2.6-5.7l5.5-25.3l0.1,0l0.1,0.1l24.1,21.8l4.8,28.5c0.7,4.4,4.2,7.6,8,7.6
		c0.4,0,0.8,0,1.2-0.1c4.3-0.7,7-5.2,6.2-10.1l-4.9-28.9c-0.1-0.4-0.2-0.9-0.3-1.3c-0.2-2.2-1.3-4.4-3.1-6l-22-19.9l6.4-27l3.8,8.1
		c0.9,1.6,2.4,2.6,4,2.9c0.4,0.1,0.9,0.2,1.4,0.2c0.1,0,0.3,0,0.4,0l25.4,0c3.2-0.2,5.6-3,5.3-6.1c-0.2-3-2.7-5.4-5.7-5.4
		c-0.1,0-0.3,0-0.4,0l-21.8,0l-9.1-19.4c-1.8-4.1-3.9-6.9-8.2-8l-5.4-1.3C93.5,46.8,92.7,46.7,91.8,46.7"/>
</g>
<g>
	<path d="M127.1,128.2v-2.7l2.5-3.3c6-7.9,8.8-12,8.8-16.9c0-3.3-1.2-6.3-4.7-6.3c-2.1,0-3.9,1.5-5,2.7l-1-3.1
		c1.6-1.9,4-3.3,6.7-3.3c5.1,0,7.2,4.8,7.2,9.4c0,6-3.2,10.8-8.1,17.3l-1.9,2.4v0.1h10.6v3.6H127.1z"/>
	<path d="M155.7,128.2v-8.8h-11v-2.9l10.5-20.6h3.5V116h3.3v3.4h-3.3v8.8H155.7z M155.7,116v-10.8c0-1.7,0-3.4,0.1-5.1h-0.1
		c-0.7,1.9-1.3,3.3-2,4.8l-5.8,11v0.1H155.7z"/>
	<path d="M165.5,93h3.2v15h0.1c0.5-1.2,1.3-2.3,2.3-3.1c0.9-0.7,2.1-1.2,3.3-1.2c2.4,0,6.1,2,6.1,10.3v14.3h-3.2v-13.8
		c0-3.9-1.1-7.2-4.1-7.2c-2.1,0-3.7,2-4.3,4.4c-0.2,0.6-0.2,1.2-0.2,2.1v14.5h-3.2V93z"/>
</g>
</svg>
