<svg xmlns="http://www.w3.org/2000/svg" class="alarmCall" viewBox="15 50 450 500" fill="currentColor">
   <path d="M403.12 277.973c-38.784-.297-50.845-.797-87.003-8.165-6.352-1.294-9.293-9.894-10.737-16.214-2.234-9.774 6.878-20.18 4.065-29.804-1.155-3.954-4.435-7.356-8.002-9.417-14.098-8.15-31.805-7.653-48.046-8.835-17.003-1.236-34.6-2.376-51.108 1.875-7.437 1.916-16.188 4.075-20.569 10.384-7.063 10.172.565 25.45-4.095 36.924-2.375 5.849-5.371 14.092-11.625 14.946-30.511 4.172-58.294 6.253-86.151 8.343-6.172.463-6.292-10.388-7.383-17.037-2.428-14.799 2.017-31.897 10.835-45.692 9.297-14.55 22.256-25.132 37.254-33.684 12.518-7.139 26.286-12.144 40.195-15.912 28.895-7.827 58.835-13.634 88.772-13.61 27.56.024 55.898 2.992 81.705 12.666 24.245 9.09 46.114 24.52 65.666 41.496 6.61 5.74 14.215 11.713 17.004 20.01 4.639 13.81 3.596 30.381-2.45 43.635-1.606 3.52-4.874 8.117-8.328 8.09z"/>
   <path style="line-height:1.25" d="M192.387 373.979v13.271q-5.996-3.05-12.454-4.576-6.458-1.526-13.378-1.526-10.533 0-15.837 3.204-5.228 3.203-5.228 9.61 0 4.881 3.767 7.703 3.767 2.746 15.145 5.263l4.844 1.068q15.069 3.203 21.373 9.076Q197 422.87 197 433.318q0 11.898-9.533 18.839-9.456 6.94-26.063 6.94-6.92 0-14.454-1.372-7.457-1.297-15.76-3.966v-14.492q7.842 4.042 15.453 6.102 7.611 1.983 15.069 1.983 9.994 0 15.376-3.356 5.382-3.432 5.382-9.61 0-5.72-3.921-8.771-3.844-3.051-16.991-5.873l-4.92-1.144q-13.147-2.746-18.99-8.39-5.843-5.72-5.843-15.636 0-12.05 8.61-18.61 8.611-6.56 24.449-6.56 7.842 0 14.761 1.145 6.92 1.144 12.762 3.432zm60.583 7.322q-11.378 0-17.99 8.847-6.612 8.772-6.612 24.102t6.535 24.178q6.612 8.771 18.067 8.771 11.302 0 17.913-8.847 6.612-8.848 6.612-24.102 0-15.178-6.612-24.025-6.611-8.924-17.913-8.924zm0-11.898q18.452 0 28.984 11.898 10.533 11.898 10.533 32.95 0 20.974-10.533 32.948-10.532 11.899-28.984 11.899-18.528 0-29.061-11.899-10.456-11.974-10.456-32.949 0-21.05 10.456-32.949 10.533-11.898 29.061-11.898zm117.783 4.576v13.271q-5.997-3.05-12.455-4.576-6.458-1.526-13.378-1.526-10.532 0-15.837 3.204-5.228 3.203-5.228 9.61 0 4.881 3.767 7.703 3.767 2.746 15.146 5.263l4.843 1.068q15.069 3.203 21.373 9.076 6.381 5.797 6.381 16.246 0 11.898-9.533 18.839-9.456 6.94-26.063 6.94-6.919 0-14.453-1.372-7.458-1.297-15.761-3.966v-14.492q7.842 4.042 15.453 6.102 7.611 1.983 15.069 1.983 9.994 0 15.376-3.356 5.382-3.432 5.382-9.61 0-5.72-3.921-8.771-3.844-3.051-16.99-5.873l-4.921-1.144q-13.147-2.746-18.99-8.39-5.843-5.72-5.843-15.636 0-12.05 8.61-18.61 8.611-6.56 24.449-6.56 7.842 0 14.761 1.145 6.92 1.144 12.763 3.432z" font-weight="400" font-size="96" letter-spacing="0" word-spacing="0" font-family="sans-serif"/>
</svg>