<svg xmlns="http://www.w3.org/2000/svg" version="1.1" id="svg3831" viewBox="0 0 500 300">
  <path class='battery' d="M64.238 70.163c-13.334 0-24.07 10.543-24.07 23.64V236.2c0 13.097 10.736 23.64 24.07 23.64h332.867c13.335 0 24.07-10.543 24.07-23.64V205.74H440.5c10.707 0 19.326-8.465 19.326-18.98v-43.385c0-10.515-8.62-18.98-19.326-18.98h-19.327V93.802c0-13.096-10.734-23.639-24.07-23.639zm22.088 21.692h288.692c13.334 0 24.07 10.543 24.07 23.64v104.567c0 13.096-10.736 23.639-24.07 23.639H86.326c-13.335 0-24.07-10.543-24.07-23.64V115.495c0-13.096 10.735-23.639 24.07-23.639z" id="rect3850" opacity="1" fill-opacity="1" stroke="#000" stroke-width=".328" stroke-linecap="square" stroke-linejoin="round" stroke-miterlimit="4" stroke-dasharray="none" stroke-dashoffset="0" stroke-opacity="1" paint-order="markers stroke fill"/>
  <rect class='level battery25' ry="8.135" y="102.701" x="84.343" height="130.153" width="61.705" id="rect3856" opacity="1" fill-opacity="1" stroke="#000" stroke-width=".331" stroke-linecap="square" stroke-linejoin="round" stroke-miterlimit="4" stroke-dasharray="none" stroke-dashoffset="0" stroke-opacity="1" paint-order="markers stroke fill"/>
  <rect class='level battery50' id="rect3858" width="61.705" height="130.153" x="161.758" y="102.701" ry="8.135" opacity="1" fill-opacity="1" stroke="#000" stroke-width=".331" stroke-linecap="square" stroke-linejoin="round" stroke-miterlimit="4" stroke-dasharray="none" stroke-dashoffset="0" stroke-opacity="1" paint-order="markers stroke fill" fill="transparent"/>
  <path class='level battery75' d="M247.586 102.701h44.876c4.662 0 8.414 3.628 8.414 8.135V224.72c0 4.506-3.752 8.134-8.414 8.134h-44.876c-4.662 0-8.414-3.628-8.414-8.134V110.836c0-4.507 3.752-8.135 8.414-8.135z" id="rect3860" opacity="1" fill-opacity="1" stroke="#000" stroke-width=".331" stroke-linecap="square" stroke-linejoin="round" stroke-miterlimit="4" stroke-dasharray="none" stroke-dashoffset="0" stroke-opacity="1" paint-order="markers stroke fill" fill="transparent"/>
  <path class='level battery100' id="path821" d="M325 102.701h44.876c4.662 0 8.415 3.628 8.415 8.135V224.72c0 4.506-3.753 8.134-8.415 8.134H325c-4.662 0-8.414-3.628-8.414-8.134V110.836c0-4.507 3.752-8.135 8.414-8.135z" opacity="1" fill-opacity="1" stroke="#000" stroke-width=".331" stroke-linecap="square" stroke-linejoin="round" stroke-miterlimit="4" stroke-dasharray="none" stroke-dashoffset="0" stroke-opacity="1" paint-order="markers stroke fill" fill="transparent"/>
</svg>
