<svg version="1.1" id="body_temperature" xmlns="http://www.w3.org/2000/svg" xmlns:xlink="http://www.w3.org/1999/xlink" x="0px" y="0px"
	viewBox="0 0 184.252 184.252" xml:space="preserve">
<path stroke="#8EC640" stroke-width="3.3763" stroke-miterlimit="10" d="M-8.228,84.705"/>
<path stroke="#8EC640" stroke-width="3.3763" stroke-miterlimit="10" d="M11.864,121.109"/>
<g>
	<g>
		<path class="user body" d="M44.544,120.069h-2.572c-6.405,0-11.598-5.192-11.598-11.598V70.787c0-6.405,5.192-11.597,11.598-11.597
			h37.686c6.405,0,11.597,5.191,11.597,11.598v37.684c0,6.405-5.191,11.598-11.597,11.598h-2.575"/>
		<circle class="user head" cx="60.815" cy="39.864" r="14.463"/>
		<g>
			<path class="user body" d="M60.873,120.069v44.838c0,4.519-3.663,8.183-8.184,8.183l0,0c-4.52,0-8.184-3.664-8.184-8.183V86.975"/>
			<path class="user body" d="M77.124,86.975v77.932c0,4.519-3.664,8.183-8.184,8.183l0,0c-4.52,0-8.184-3.664-8.184-8.183v-44.838"/>
		</g>
	</g>
	<path class="meter" d="M117.294,174.563c-10.366,0-18.799-8.434-18.799-18.8c0-6.519,3.396-12.567,8.92-15.984V35.367
		c0-5.448,4.432-9.88,9.879-9.88c5.448,0,9.881,4.432,9.881,9.88v104.412c5.523,3.417,8.92,9.466,8.92,15.984
		C136.095,166.129,127.662,174.563,117.294,174.563z M117.294,28.321c-3.885,0-7.045,3.161-7.045,7.046v106.055l-0.726,0.405
		c-5.055,2.823-8.194,8.163-8.194,13.937c0,8.804,7.162,15.966,15.965,15.966c8.804,0,15.967-7.162,15.967-15.966
		c0-5.773-3.14-11.113-8.194-13.937l-0.726-0.405V35.367C124.341,31.482,121.18,28.321,117.294,28.321z"/>
	<path  class="meter inner" d="M121.413,143.744V83.718h-8.233v60.025c-5.083,1.719-8.748,6.516-8.748,12.182
		c0,7.104,5.759,12.865,12.863,12.865c7.107,0,12.866-5.762,12.866-12.865C130.161,150.261,126.498,145.462,121.413,143.744z"/>
	<rect class="meter" x="130.161" y="37.182" width="12.063" height="2.834"/>
	<rect class="meter" x="130.161" y="50.579" width="12.063" height="2.834"/>
	<rect class="meter" x="130.161" y="63.975" width="12.063" height="2.834"/>
	<rect class="meter" x="130.161" y="77.372" width="12.063" height="2.834"/>
	<rect class="meter" x="130.161" y="90.768" width="12.063" height="2.834"/>
	<rect class="meter" x="130.161" y="104.165" width="12.063" height="2.834"/>
	<rect class="meter" x="130.161" y="117.559" width="12.063" height="2.834"/>
	<rect class="meter" x="130.161" y="130.956" width="12.063" height="2.834"/>
	<rect class="meter inner" x="113.167" y="79.562" width="8.258" height="3.084"/>
	<rect class="meter inner" x="113.167" y="75.416" width="8.258" height="3.084"/>
	<rect class="meter inner" x="113.167" y="71.269" width="8.258" height="3.084"/>
	<rect class="meter inner" x="113.167" y="67.123" width="8.258" height="3.084"/>
	<rect class="meter inner" x="113.167" y="62.976" width="8.258" height="3.084"/>
	<rect class="meter inner" x="113.167" y="58.83" width="8.258" height="3.084"/>
</g>
</svg>
