<svg class='call' xmlns="http://www.w3.org/2000/svg" viewBox="-50 -50 600 600">
  <path d="M320 240.169c4.312-15.72-6.043-28.807-16.53-41.13-10.487-12.324-34.875-25.078-50.724-22.915l-31.11-38.248c37.084-4.513 83.66 5.403 108.197 31.117 24.538 25.714 38.925 67.575 28.834 100.376z" />
  <path d="M390.057 282.625c10.56-38.448-5.443-86.859-29.094-118.615-35.162-47.211-102.464-61.336-141.272-56.045l-30.658-42.336C259.643 58.366 333.213 63.249 390 130c53.92 63.381 59.756 103.785 48.269 179.47-19.074-10.615-48.212-26.845-48.212-26.845zM102.672 127.355c36.055 31.115 46.942 41.173 74.919 76.816 4.914 6.261.828 16.647-2.845 23.708-5.682 10.923-22.482 13.415-27.502 24.657-2.062 4.618-1.698 10.41 0 15.173 6.711 18.836 23.675 32.45 37.933 46.469 14.927 14.676 30.486 29.734 49.314 38.882 8.482 4.121 18.387 9.059 27.502 6.638 14.697-3.903 19.708-24.264 33.192-31.295 6.87-3.583 16.229-8.914 22.76-4.742 31.867 20.357 59.519 40.499 87.247 60.694 6.143 4.474-2.373 14.723-6.639 21.812-9.493 15.777-27.248 28.24-46.468 34.14-20.268 6.22-40.807 5.819-61.642 1.897-17.389-3.274-34.252-9.537-50.262-17.07-33.26-15.651-65.894-34.023-93.886-57.85-25.77-21.934-49.928-47.243-66.383-76.814-15.46-27.783-23.654-59.61-28.45-91.04-1.622-10.626-3.989-22.264 0-32.244 6.638-16.61 20.79-31.288 36.985-38.882 4.303-2.018 11.014-3.72 14.225-.949z" />
</svg>
