<svg xmlns="http://www.w3.org/2000/svg" width="85" height="85" viewBox="0 0 500 500">
   <g>
      <path class='callSchedules-schedule' d="M93.874 69.8843l.01 25.1105 16.59-.2894m18.4923.2886a34.3657 34.3657 0 01-34.3657 34.3656A34.3657 34.3657 0 0160.2348 94.994a34.3657 34.3657 0 0134.3658-34.3657 34.3657 34.3657 0 0134.3657 34.3657z" fill="none" stroke="currentColor" stroke-width="10" stroke-linecap="round" stroke-linejoin="round"/>
      <path class='callSchedules-notAvailable' d="M61.463 52.2026h9.5673v9.2193H61.463zm-31.75 15.875h9.5673v9.2193H29.713zm-15.875 0h9.5673v9.2193H13.838zm15.875 15.875h9.5673v9.2193H29.713zm-15.875 0h9.5673v9.2193H13.838zm31.75-15.875h9.5673v9.2193H45.588zm31.75-31.75h9.5673v9.2193H77.338zm-31.75 15.875h9.5673v9.2193H45.588zm-15.875 0h9.5673v9.2193H29.713zm-15.875 0h9.5673v9.2193H13.838zm47.625-15.875h9.5673v9.2193H61.463zm-15.875 0h9.5673v9.2193H45.588z" stroke="currentColor" stroke-width="3.9688"/>
      <path class='callSchedules-notAvailable' d="M52.4744 102.109H13.732c-4.8162 0-8.6935-4.2817-8.6935-9.6003V27.653" stroke="currentColor" fill="none" stroke-width="3.9687"/>
      <path class='callSchedules-notAvailable' d="M103.3121 28.0633l.0001 24.8633" stroke="currentColor" stroke-width="3.9687"/>
      <path class='callSchedules-notAvailable' d="M5.0385 29.7697v-7.686c0-4.8162 3.8772-8.6934 8.6934-8.6934h1.3494v13.5972H31.75V13.3903h44.9792v13.5972h16.6687V13.3903h1.2209c4.8161 0 8.6935 3.8772 8.6934 8.6934v7.6859zM84.303 2.6827h1.3548c1.2221 0 2.206.9839 2.206 2.206v14.962c0 1.2221-.9839 2.206-2.206 2.206H84.303a2.2012 2.2012 0 01-2.206-2.206V4.8887c0-1.2221.9838-2.206 2.206-2.206zm-61.4212 0h1.3548c1.2222 0 2.2061.9839 2.2061 2.206v14.962c0 1.2221-.9839 2.206-2.206 2.206h-1.3549a2.2012 2.2012 0 01-2.206-2.206V4.8887c0-1.2221.9839-2.206 2.206-2.206z" stroke="currentColor" stroke-width="3.9688"/>
   </g>
</svg>