<svg class='cellLocation' xmlns="http://www.w3.org/2000/svg" viewBox="0 0 500 500">
  <circle cx="250" cy="175" r="55" fill="none" stroke="#000" stroke-width=".4" stroke-linecap="square" stroke-linejoin="round"/>
  <path d="M250 90.033a85.451 85.451 0 00-85.451 85.451A85.451 85.451 0 00250 260.936a85.451 85.451 0 0085.451-85.452A85.451 85.451 0 00250 90.034zM250 120a55 55 0 0155 55 55 55 0 01-55 55 55 55 0 01-55-55 55 55 0 0155-55z" />
  <path d="M245.672 28.588c-13.447.134-26.384 1.676-38.666 4.416l17.512 38.152a143.154 143.154 0 0125.414-1.935c8.737.104 17.107.93 25.084 2.367l16.113-38.197c-12.908-2.935-26.672-4.626-41.207-4.8a193.788 193.788 0 00-4.25-.003zm-54.833 7.748c-19.37 5.854-33.385 14.77-48.22 25.89l24.076 33.71c11.965-9.248 22.128-17.276 38.08-21.907zm119.575 2.566l-16.066 33.645c14.54 7.21 23.77 13.527 35.582 22.18l28.027-30.317c-13.57-10.473-29.53-19.255-47.543-25.508zM126.186 76.514c-15.89 16.005-27.224 34.945-32.647 55.111l37.459 14.865c4.193-14.618 12.46-28.348 23.902-40.066zm246.736 1.07l-33.84 24.562c12.36 11.087 21.557 24.089 27.041 37.586l37.39-15.396c-6.127-16.548-16.522-32.633-30.591-46.752zm36.424 70.984l-39.598 2.2c1.482 5.894 2.248 11.809 2.248 17.628.343 11.885-.558 22.811-2.283 32.749l36.633 3.544c2.633-13.862 4.062-29.243 3.576-46.097 0-3.322-.202-6.668-.576-10.024zM89.94 157.385c-.004.402-.02.804-.02 1.207 0 19.569 1.838 36.49 4.884 51.238l35.722-8.008c-1.678-9.871-2.658-20.942-2.658-33.426 0-2.974.18-5.934.518-8.875zm276.776 57.324c-4.211 15.653-10.31 28.254-16.082 37.605a250.399 250.399 0 01-3.457 5.418l27.463 22.09c2.748-4.106 5.249-7.938 7.28-11.23 6.39-10.35 13.082-23.74 18.335-40.006zm-232.242 4.41l-34.778 9.66c5.027 16.031 11.5 29.007 18.225 39.813 2.88 4.629 6.14 9.639 9.682 14.91l29.738-18.725a398.429 398.429 0 01-8.112-12.463c-5.519-8.868-10.816-19.653-14.755-33.195zm202.6 53.32c-9.02 12.66-20.6 27.893-33.665 43.75l26.545 23.891c12.735-15.905 24.08-30.961 33.418-44.023zm-168.839 7.84l-29.11 19.82c9.82 13.747 21.218 28.773 33.856 44.368l27.854-22.672c-12.228-14.496-23.266-28.663-32.6-41.516zm125.43 47.496c-10.545 12.335-21.74 24.698-33.088 36.159l26.22 26.795c11.732-12.88 23.107-26.114 33.753-39.055zm-80.643 8.118l-28.207 22.918a962.132 962.132 0 0032.495 36.689l25.238-28.316c-10.251-10.16-20.148-20.72-29.526-31.291zm38.317 44.335l-25.203 24.594c7.76 8.078 15.702 16.04 23.785 23.77 8.07-7.662 16.152-15.795 24.14-24.186z" fill-rule="evenodd"/>
</svg>
