<svg class="locateDevice" xmlns="http://www.w3.org/2000/svg" width="48" height="48" viewBox="0 0 24 24">
  <path class="locator" d="M20.94 11A8.994 8.994 0 0013 3.06V1h-2v2.06A8.994 8.994 0 003.06 11H1v2h2.06A8.994 8.994 0 0011 20.94V23h2v-2.06A8.994 8.994 0 0020.94 13H23v-2h-2.06zM12 19c-3.87 0-7-3.13-7-7s3.13-7 7-7 7 3.13 7 7-3.13 7-7 7z"/>
  <path class="device" d="M15.835 12c0-1.218-.57-2.306-1.457-3.005l-.46-2.747h-3.835l-.456 2.747A3.806 3.806 0 008.165 12c0 1.222.57 2.306 1.462 3.005l.456 2.747h3.834l.46-2.747A3.823 3.823 0 0015.836 12zm-6.711 0A2.878 2.878 0 0112 9.124 2.878 2.878 0 0114.876 12 2.878 2.878 0 0112 14.876 2.878 2.878 0 019.124 12z"/>
	<path class="user" d="M 14.116608,6.1793275 H 9.8833918 c -0.8783924,0 -1.5874561,0.7090637 -1.5874561,1.5874561 v 8.4664324 c 0,0.878393 0.7090637,1.587456 1.5874561,1.587456 h 4.2332162 c 0.878393,0 1.587456,-0.709063 1.587456,-1.587456 V 7.7667836 c 0,-0.8783924 -0.709063,-1.5874561 -1.587456,-1.5874561 z M 13.058304,16.762368 h -2.116608 v -0.529152 h 2.116608 z m 1.719744,-1.587456 H 9.2219518 V 7.7667836 h 5.5560962 z"/>
	<g class="locationOff">
    <path d="M20.273 4.717L4.717 20.273l-.99-.99L19.284 3.728z"/>
    <path d="M4.717 3.727l15.556 15.557-.99.99L3.728 4.716z"/>
  </g>
</svg>