<svg class='chargerDisconnected' xmlns="http://www.w3.org/2000/svg" viewBox="0 0 132.292 79.375">
  <g>
    <path d="M51.065 68.748h54.004c3.528 0 6.369-2.79 6.369-6.254v-8.06h5.113c2.833 0 5.114-2.24 5.114-5.021V37.934c0-2.782-2.28-5.022-5.114-5.022h-5.113V24.82c0-3.465-2.84-6.255-6.369-6.255H51.594v5.74h47.631c3.528 0 6.369 2.789 6.369 6.254v27.666c0 3.465-2.84 6.254-6.369 6.254h-48.16zm-16.67-4.27H22.84c-3.528 0-6.368-2.79-6.368-6.254V30.558c0-3.465 2.84-6.255 6.368-6.255h11.557v-5.739h-17.4c-3.529 0-6.37 2.79-6.37 6.255v37.675c0 3.465 2.841 6.254 6.37 6.254h17.4z" stroke="#000" stroke-width=".087" stroke-linecap="square" stroke-linejoin="round" paint-order="markers stroke fill"/>
    <g transform="translate(-6.667 -5.595) scale(.29636)">
      <rect ry="1.984" y="159.417" x="58.208" height="15.875" width="74.083"/>
      <path d="M149.448 98.185h30.469a1.97 1.97 0 011.962 1.984v84.478a1.97 1.97 0 01-1.962 1.984h-30.469a1.97 1.97 0 01-1.963-1.984v-84.478c0-1.1.876-1.984 1.963-1.984zM149.47 212.333h30.049c1.1 0 1.984.885 1.984 1.985v22.49a1.98 1.98 0 01-1.984 1.984h-30.05a1.98 1.98 0 01-1.984-1.985v-22.49c0-1.099.885-1.984 1.985-1.984zM201.083 159.417c-5.291 0-5.291 15.875 0 15.875h21.167s12.094 9.791 18.899 16.63c7.306 7.344 22.904 21.349 33.262 21.167l43.089-.756v-21.166h42.333c10.584 0 10.584-10.584 0-10.584H317.5v-31.75h42.333c10.584 0 10.584-10.583 0-10.583H317.5v-21.167l-43.845.756c-10.582.183-23.305 12.727-30.238 19.655-7.185 7.18-21.167 21.923-21.167 21.923h-21.167z"/>
    </g>
  </g>
</svg>
