<svg class='chargingInterrupted' xmlns="http://www.w3.org/2000/svg" viewBox="0 0 132.292 132.292">
  <g>
    <g transform="matrix(.24411 0 0 .24022 -8.909 59.477)" stroke="#000" stroke-width=".3" stroke-linecap="square" stroke-linejoin="round" paint-order="markers stroke fill">
      <path d="M404.308 167.024l.692 33.181c.252 12.072-9.72 21.795-21.795 21.795h-261.41A21.747 21.747 0 01100 200.205v-96.41c0-12.075 9.722-21.198 21.795-21.404h153.217l11.497-20.87L101.795 62c-12.075.031-20.833 9.72-20.914 21.795L80 215.085c-.081 12.075 9.72 21.796 21.795 21.796h301.41A21.747 21.747 0 00425 215.086V187h17.5c9.695 0 14.581-10.281 14.581-19.976z"/>
      <rect ry="7.5" y="92" x="120" height="120" width="55"/>
      <rect width="55" height="120" x="190" y="92" ry="7.5"/>
      <path d="M315 167.024V204.5c0 4.155-3.345 7.5-7.5 7.5h-40a7.484 7.484 0 01-7.5-7.5v-37.476c12.373-.605 55 0 55 0z"/>
    </g>
    <g transform="matrix(.58654 0 0 .5877 53.929 -73.003)">
      <rect width="10.583" height="32.506" x="60.854" y="219.515" ry="1.984"/>
      <rect width="10.583" height="9.26" x="60.854" y="258.522" ry="1.984"/>
      <path d="M61.136 183.23c-2.745 4.847-46.36 82.088-51.615 91.148-5.448 9.393 2.385 11.21 6.495 11.078 4.11-.132 94.827 0 100.26 0 5.432 0 11.495-1.95 6.36-11.078-5.136-9.128-47.772-86.301-50.518-91.149-2.745-4.847-8.236-4.847-10.982 0zm5.01 7.937l47.625 84.666H18.52z"/>
    </g>
  </g>
</svg>
