<svg class='checked' xmlns="http://www.w3.org/2000/svg" viewBox="0 0 500 500">
  <g>
    <path d="M383.125 180.835c17.124 25.442 26.572 51.19 26.572 84.165 0 88.198-71.499 159.697-159.697 159.697-88.198 0-159.697-71.499-159.697-159.697 0-88.198 71.499-159.697 159.697-159.697 37.489 0 71.96 12.917 99.207 34.544l-21.464 12.975c-21.397-14.53-47.23-23.021-75.046-23.021-73.85 0-133.717 59.847-133.717 133.672 0 73.825 59.867 133.673 133.717 133.673 73.85 0 133.718-59.848 133.718-133.673 0-27.956-6.947-48.472-21.626-69.928z"/>
    <path d="M216.386 231.888l-28.94 19.027s18.3 21.307 24.572 33.706c6.266 12.387 12.559 39.686 12.559 39.686l47.506-8.698s30.932-67.707 52.42-97.856c16.325-22.905 38.223-41.317 57.335-61.975l-3.277-7.611s-24.447 5.734-35.493 11.416c-15.135 7.787-28.27 19.12-40.953 30.444-8.15 7.277-15.715 15.281-22.388 23.92-10.22 13.233-18.184 28.059-26.756 42.405-1.708 2.859-4.914 8.698-4.914 8.698s-9.52-13.63-15.29-19.571c-4.94-5.088-16.381-13.591-16.381-13.591z"/>
  </g>
</svg>
