<svg class="circadianCycle" version="1.1" xmlns="http://www.w3.org/2000/svg" xmlns:xlink="http://www.w3.org/1999/xlink" x="0px" y="0px"
	viewBox="0 0 184.252 184.252" xml:space="preserve">
<path stroke="#8EC640" stroke-width="3.3763" stroke-miterlimit="10" d="M-8.228,84.705"/>
<path stroke="#8EC640" stroke-width="3.3763" stroke-miterlimit="10" d="M11.864,121.109"/>
<path class="all body" d="M177.738,119.858L156.41,90.28c-0.018-0.024-0.039-0.045-0.057-0.069c-0.658-1.154-1.58-2.214-2.758-3.069
	c-3.949-2.867-9.197-2.375-11.719,1.1l-16.26,22.389H65.813c-5.339,0-9.746,4.159-10.51,9.576h-4.12
	c0.631-1.676,0.992-3.482,0.992-5.379c0-8.443-6.844-15.287-15.287-15.287c-8.441,0-15.286,6.844-15.286,15.287
	c0,1.896,0.361,3.703,0.992,5.379h-7.174c-4.532,0-8.206,2.885-8.206,6.443c0,3.56,3.674,6.445,8.206,6.445h49.231
	c0.168,0,0.332-0.012,0.498-0.02c0.221,0.014,0.439,0.035,0.663,0.035h60.247c1.123,0,2.204-0.186,3.221-0.527
	c1.59-0.371,3.015-1.215,4.045-2.516c0.839-0.83,1.557-1.795,2.106-2.873l12.948-17.83l15.021,20.83
	c2.375,3.293,7.508,3.648,11.467,0.793C178.83,128.133,180.113,123.149,177.738,119.858z"/>
<path class="all lines" d="M10.405,66.044c-1.633,0-2.957-1.326-2.957-2.959v-11.41c0-1.633,1.324-2.957,2.957-2.957
	c1.634,0,2.958,1.324,2.958,2.957v11.41C13.363,64.718,12.039,66.044,10.405,66.044z"/>
<path class="all lines" d="M24.611,82.345c-1.633,0-2.957-1.324-2.957-2.959V60.989c0-1.633,1.324-2.957,2.957-2.957
	s2.958,1.324,2.958,2.957v18.396C27.569,81.021,26.244,82.345,24.611,82.345z"/>
<path class="all lines" d="M39.283,95.384c-1.633,0-2.958-1.324-2.958-2.957V67.511c0-1.635,1.325-2.959,2.958-2.959
	s2.957,1.324,2.957,2.959v24.916C42.24,94.06,40.916,95.384,39.283,95.384z"/>
<path class="all lines" d="M54.42,99.345c-1.634,0-2.958-1.326-2.958-2.959V70.771c0-1.633,1.324-2.959,2.958-2.959
	c1.633,0,2.957,1.326,2.957,2.959v25.615C57.377,98.019,56.053,99.345,54.42,99.345z"/>
<path class="all lines" d="M70.675,95.851c-1.633,0-2.957-1.324-2.957-2.957V66.81c0-1.633,1.324-2.957,2.957-2.957
	s2.958,1.324,2.958,2.957v26.084C73.633,94.526,72.308,95.851,70.675,95.851z"/>
<path class="all lines" d="M86.322,84.44c-1.633,0-2.958-1.324-2.958-2.957V61.688c0-1.633,1.325-2.957,2.958-2.957
	s2.957,1.324,2.957,2.957v19.795C89.279,83.116,87.955,84.44,86.322,84.44z"/>
<path class="all lines" d="M101.693,74.192c-1.633,0-2.958-1.324-2.958-2.957V50.276c0-1.633,1.325-2.957,2.958-2.957
	s2.957,1.324,2.957,2.957v20.959C104.65,72.868,103.326,74.192,101.693,74.192z"/>
<path class="all lines" d="M117.527,69.536c-1.633,0-2.957-1.324-2.957-2.957V40.03c0-1.633,1.324-2.957,2.957-2.957
	s2.958,1.324,2.958,2.957v26.549C120.485,68.212,119.16,69.536,117.527,69.536z"/>
<path class="all lines" d="M133.597,67.208c-1.633,0-2.958-1.324-2.958-2.957V38.634c0-1.633,1.325-2.957,2.958-2.957
	s2.958,1.324,2.958,2.957v25.617C136.554,65.884,135.229,67.208,133.597,67.208z"/>
<path class="all lines" d="M148.5,68.372c-1.633,0-2.957-1.326-2.957-2.959V44.456c0-1.633,1.324-2.959,2.957-2.959
	s2.959,1.326,2.959,2.959v20.957C151.458,67.046,150.132,68.372,148.5,68.372z"/>
<path class="all lines" d="M162.24,73.495c-1.633,0-2.957-1.326-2.957-2.959v-14.67c0-1.633,1.324-2.957,2.957-2.957
	s2.957,1.324,2.957,2.957v14.67C165.197,72.169,163.873,73.495,162.24,73.495z"/>
<path class="all lines" d="M175.746,80.481c-1.633,0-2.957-1.324-2.957-2.959v-5.123c0-1.633,1.324-2.957,2.957-2.957
	s2.959,1.324,2.959,2.957v5.123C178.705,79.157,177.378,80.481,175.746,80.481z"/>
</svg>
