<svg 
	xmlns="http://www.w3.org/2000/svg"
	aria-hidden="true"
	data-prefix="fas"
	data-icon="home"
	viewBox="0 0 1350 1350"
	width="60"
	height="60"
   >
   <path 
      d="M283.385 902.26l-184.37 151.85V1218a16 16 0 0016 16l112.06-.29a16 16 0 0015.92-16V1122a16 16 0 0116-16h64a16 16 0 0116 16v95.64a16 16 0 0016 16.05l112.02.31a16 16 0 0016-16v-164l-184.33-151.74a12.19 12.19 0 00-15.3 0zm291.23 103.21l-83.6-68.91V798.05a12 12 0 00-12-12h-56a12 12 0 00-12 12v72.61L321.485 797a48 48 0 00-61 0L7.355 1005.47a12 12 0 00-1.6 16.9l25.5 31a12 12 0 0016.91 1.63l235.22-193.74a12.19 12.19 0 0115.3 0L533.915 1055a12 12 0 0016.9-1.6l25.5-31a12 12 0 00-1.7-16.93z"
		fill="teal"/>
   <circle 
      cx="978.987"
		cy="344.78"
		transform="rotate(30)"
		r="170"
		fill="#fff"
		fill-opacity=".7"/>
   <path 
      d="M667.801 236.432l-184.37 151.85v163.89a16 16 0 0016 16l112.06-.29a16 16 0 0015.92-16v-95.71a16 16 0 0116-16h64a16 16 0 0116 16v95.64a16 16 0 0016 16.05l112.02.31a16 16 0 0016-16v-164l-184.33-151.74a12.19 12.19 0 00-15.3 0zm291.23 103.21l-83.6-68.91v-138.51a12 12 0 00-12-12h-56a12 12 0 00-12 12v72.61l-89.53-73.66a48 48 0 00-61 0l-253.13 208.47a12 12 0 00-1.6 16.9l25.5 31a12 12 0 0016.91 1.63l235.22-193.74a12.19 12.19 0 0115.3 0l235.23 193.74a12 12 0 0016.9-1.6l25.5-31a12 12 0 00-1.7-16.93zM1052.217 902.26l-184.37 151.85V1218a16 16 0 0016 16l112.06-.29a16 16 0 0015.92-16V1122a16 16 0 0116-16h64a16 16 0 0116 16v95.64a16 16 0 0016 16.05l112.02.31a16 16 0 0016-16v-164l-184.33-151.74a12.19 12.19 0 00-15.3 0zm291.23 103.21l-83.6-68.91V798.05a12 12 0 00-12-12h-56a12 12 0 00-12 12v72.61l-89.53-73.66a48 48 0 00-61 0l-253.13 208.47a12 12 0 00-1.6 16.9l25.5 31a12 12 0 0016.91 1.63l235.22-193.74a12.19 12.19 0 0115.3 0l235.23 193.74a12 12 0 0016.9-1.6l25.5-31a12 12 0 00-1.7-16.93z"
		fill="teal"/>
</svg>
