<?xml version="1.0" encoding="UTF-8" standalone="no"?>
<svg
   xmlns:osb="http://www.openswatchbook.org/uri/2009/osb"
   xmlns:dc="http://purl.org/dc/elements/1.1/"
   xmlns:cc="http://creativecommons.org/ns#"
   xmlns:rdf="http://www.w3.org/1999/02/22-rdf-syntax-ns#"
   xmlns:svg="http://www.w3.org/2000/svg"
   xmlns="http://www.w3.org/2000/svg"
   xmlns:sodipodi="http://sodipodi.sourceforge.net/DTD/sodipodi-0.dtd"
   xmlns:inkscape="http://www.inkscape.org/namespaces/inkscape"
   aria-hidden="true"
   focusable="false"
   data-prefix="fas"
   data-icon="home"
   class="svg-inline--fa fa-home fa-w-18"
   role="img"
   viewBox="0 0 1350 1350"
   version="1.1"
   id="svg12"
   sodipodi:docname="clustererBeaconsNoArrows.svg"
   inkscape:version="0.92.4 (5da689c313, 2019-01-14)"
   width="1350"
   height="1350">
  <metadata
     id="metadata18">
    <rdf:RDF>
      <cc:Work
         rdf:about="">
        <dc:format>image/svg+xml</dc:format>
        <dc:type
           rdf:resource="http://purl.org/dc/dcmitype/StillImage" />
        <dc:title></dc:title>
      </cc:Work>
    </rdf:RDF>
  </metadata>
  <defs
     id="defs16">
    <linearGradient
       id="linearGradient4643"
       osb:paint="solid">
      <stop
         style="stop-color:#ffffff;stop-opacity:1;"
         offset="0"
         id="stop4641" />
    </linearGradient>
    <marker
       inkscape:stockid="Arrow1Send"
       orient="auto"
       refY="0"
       refX="0"
       id="Arrow1Send"
       style="overflow:visible"
       inkscape:isstock="true">
      <path
         id="path891"
         d="M 0,0 5,-5 -12.5,0 5,5 Z"
         style="fill:#008000;fill-opacity:1;fill-rule:evenodd;stroke:#008000;stroke-width:1.00000003pt;stroke-opacity:1"
         transform="matrix(-0.2,0,0,-0.2,-1.2,0)"
         inkscape:connector-curvature="0" />
    </marker>
    <marker
       inkscape:stockid="Arrow1Send"
       orient="auto"
       refY="0"
       refX="0"
       id="Arrow1Send-0"
       style="overflow:visible"
       inkscape:isstock="true">
      <path
         inkscape:connector-curvature="0"
         id="path891-5"
         d="M 0,0 5,-5 -12.5,0 5,5 Z"
         style="fill:#008000;fill-opacity:1;fill-rule:evenodd;stroke:#008000;stroke-width:1.00000003pt;stroke-opacity:1"
         transform="matrix(-0.2,0,0,-0.2,-1.2,0)" />
    </marker>
    <marker
       inkscape:stockid="Arrow1Send"
       orient="auto"
       refY="0"
       refX="0"
       id="Arrow1Send-9"
       style="overflow:visible"
       inkscape:isstock="true">
      <path
         inkscape:connector-curvature="0"
         id="path891-0"
         d="M 0,0 5,-5 -12.5,0 5,5 Z"
         style="fill:#008000;fill-opacity:1;fill-rule:evenodd;stroke:#008000;stroke-width:1.00000003pt;stroke-opacity:1"
         transform="matrix(-0.2,0,0,-0.2,-1.2,0)" />
    </marker>
    <marker
       inkscape:stockid="Arrow1Send"
       orient="auto"
       refY="0"
       refX="0"
       id="Arrow1Send-7"
       style="overflow:visible"
       inkscape:isstock="true">
      <path
         inkscape:connector-curvature="0"
         id="path891-06"
         d="M 0,0 5,-5 -12.5,0 5,5 Z"
         style="fill:#008000;fill-opacity:1;fill-rule:evenodd;stroke:#008000;stroke-width:1.00000003pt;stroke-opacity:1"
         transform="matrix(-0.2,0,0,-0.2,-1.2,0)" />
    </marker>
    <marker
       inkscape:stockid="Arrow1Send"
       orient="auto"
       refY="0"
       refX="0"
       id="Arrow1Send-5"
       style="overflow:visible"
       inkscape:isstock="true">
      <path
         inkscape:connector-curvature="0"
         id="path891-8"
         d="M 0,0 5,-5 -12.5,0 5,5 Z"
         style="fill:#008000;fill-opacity:1;fill-rule:evenodd;stroke:#008000;stroke-width:1.00000003pt;stroke-opacity:1"
         transform="matrix(-0.2,0,0,-0.2,-1.2,0)" />
    </marker>
  </defs>
  <sodipodi:namedview
     pagecolor="#ffffff"
     bordercolor="#666666"
     borderopacity="1"
     objecttolerance="10"
     gridtolerance="10"
     guidetolerance="10"
     inkscape:pageopacity="0"
     inkscape:pageshadow="2"
     inkscape:window-width="1920"
     inkscape:window-height="1137"
     id="namedview14"
     showgrid="false"
     inkscape:zoom="0.5"
     inkscape:cx="338.10654"
     inkscape:cy="438.98662"
     inkscape:window-x="-8"
     inkscape:window-y="-8"
     inkscape:window-maximized="1"
     inkscape:current-layer="svg12"
     inkscape:pagecheckerboard="true"
     fit-margin-top="5"
     fit-margin-left="5"
     fit-margin-right="5"
     fit-margin-bottom="5" />
  <path
     inkscape:connector-curvature="0"
     style="fill:#008080;fill-opacity:1"
     d="M 283.38499,788.2599 99.01501,940.11 V 1104 a 16,16 0 0 0 16,16 l 112.06002,-0.29 a 16,16 0 0 0 15.92,-16 V 1008 a 16,16 0 0 1 16,-16 h 63.99998 a 16,16 0 0 1 16.00001,16 l -1e-4,95.6399 a 16,16 0 0 0 16,16.05 l 112.0201,0.31 a 16,16 0 0 0 16,-16 l -10e-5,-164 -184.32994,-151.74 a 12.19,12.19 0 0 0 -15.29999,0 z m 291.22993,103.21 -83.5999,-68.91 -10e-5,-138.51 a 12,12 0 0 0 -11.9999,-12 h -56.0001 a 12,12 0 0 0 -12,12 v 72.61 L 321.48491,683 A 48,48 0 0 0 260.485,683 L 7.354998,891.4699 a 12,12 0 0 0 -1.60002,16.9 l 25.50001,31 A 12,12 0 0 0 48.165028,941 L 283.38501,747.26 a 12.19,12.19 0 0 1 15.29999,0 L 533.91502,941 a 12,12 0 0 0 16.9,-1.6001 l 25.4999,-31 a 12,12 0 0 0 -1.7,-16.93 z"
     id="path10-1-4-9" />
  <circle
     style="opacity:1;fill:#ffffff;fill-opacity:0.98139535;stroke:none;stroke-width:0.73713475;stroke-miterlimit:4;stroke-dasharray:none;stroke-opacity:1"
     id="path36"
     cx="921.98749"
     cy="246.05269"
     transform="rotate(30)"
     r="168.43222" />
  <path
     inkscape:connector-curvature="0"
     style="fill:#008080;fill-opacity:1"
     d="M 667.80116,122.43179 483.4312,274.28188 v 163.89 a 16,16 0 0 0 16,16 l 112.06002,-0.29 a 16,16 0 0 0 15.92004,-16 v -95.71 a 16,16 0 0 1 16,-16 h 63.9999 a 16,16 0 0 1 15.99997,16 l -10e-5,95.6399 a 16,16 0 0 0 16,16.05 l 112.0201,0.31 a 16,16 0 0 0 16,-16 l -1e-4,-164 -184.32987,-151.73999 a 12.19,12.19 0 0 0 -15.3,0 z m 291.22987,103.20999 -83.5999,-68.91 -1e-4,-138.50997 a 12,12 0 0 0 -11.9999,-12 h -56.0001 a 12,12 0 0 0 -12,12 v 72.61 l -89.52997,-73.6599 a 48,48 0 0 0 -60.9999,0 L 391.77119,225.64178 a 12,12 0 0 0 -1.60002,16.9 l 25.50001,31 a 12,12 0 0 0 16.91004,1.6301 L 667.80116,81.43191 a 12.19,12.19 0 0 1 15.3,0 l 235.22997,193.73997 a 12,12 0 0 0 16.9,-1.6001 l 25.4999,-31 a 12,12 0 0 0 -1.7,-16.93 z"
     id="path10-1-4-9-5" />
  <path
     inkscape:connector-curvature="0"
     style="fill:#008080;fill-opacity:1"
     d="M 1052.2171,788.2598 867.84713,940.1099 v 163.89 a 16,16 0 0 0 16,16 l 112.06007,-0.29 a 16,16 0 0 0 15.92,-16 v -95.71 a 16,16 0 0 1 16,-16 h 63.9999 a 16,16 0 0 1 16,16 l -10e-5,95.6399 a 16,16 0 0 0 16,16.05 l 112.0201,0.31 a 16,16 0 0 0 16,-16 l -10e-5,-164 -184.3299,-151.74 a 12.19,12.19 0 0 0 -15.3,0 z m 291.2299,103.21 -83.5999,-68.91 -10e-5,-138.5099 a 12,12 0 0 0 -11.9999,-12 h -56.0001 a 12,12 0 0 0 -12,12 v 72.61 L 1090.317,683 a 48,48 0 0 0 -60.9999,0 L 776.18713,891.4698 a 12,12 0 0 0 -1.6,16.9 l 25.5,31 a 12,12 0 0 0 16.9101,1.6301 L 1052.2171,747.26 a 12.19,12.19 0 0 1 15.3,0 l 235.23,193.7399 a 12,12 0 0 0 16.9,-1.6001 l 25.4999,-31 a 12,12 0 0 0 -1.7,-16.93 z"
     id="path10-1-4-9-3" />
</svg>
