<svg xmlns="http://www.w3.org/2000/svg" class="emergencyTrackingOn" viewBox="0 0 500 500" aria-hidden="true">
   <path class="triangle" d="M461.8802 450H40a11.547 11.547 60 01-10-17.3205l210.9401-365.359a11.547 11.547 0 0120 0l210.94 365.359a11.547 11.547 120 01-10 17.3205z" stroke="currentColor" stroke-width="30" fill="transparent" fill-rule="evenodd"/>
   <path class="marker" d="M250 210c-39.727 0-71.8575 32.1306-71.8575 71.8576 0 53.893 71.8575 133.4497 71.8575 133.4497s71.8576-79.5566 71.8576-133.4497C321.8576 242.1305 289.727 210 250 210zm0 97.521c-14.1662 0-25.6634-11.4973-25.6634-25.6635 0-14.1661 11.4972-25.6634 25.6634-25.6634s25.6634 11.4973 25.6634 25.6635c0 14.1661-11.4972 25.6633-25.6634 25.6633z" fill="currentColor"/>
</svg>