<svg xmlns="http://www.w3.org/2000/svg" class="emergencyTrackingOff" viewBox="0 0 500 500" aria-hidden="true">
   <path class="triangle" fill="none" d="M0 0h24v24H0zm11.75 11.47l-.11-.11z"/>
   <path class="marker" d="M457.6601 448.4665H35.7799a11.547 11.547 60 01-10-17.3205L236.72 65.787a11.547 11.547 0 0120 0l210.9401 365.359a11.547 11.547 120 01-10 17.3205z" fill="#4caf50" fill-rule="evenodd"/>
   <path class="marker" d="M249.1594 266.381c13.1428 0 23.8095 10.6666 23.8095 23.8095 0 7.0476-3.1429 13.238-7.9048 17.619l34.5715 34.5715c9.3333-17.7143 16.1904-36.1905 16.1904-52.1905 0-36.8572-29.8095-66.6667-66.6666-66.6667-18.8572 0-35.8096 7.9048-48 20.4762l30.381 30.381c4.3809-4.9524 10.5713-8 17.619-8zm41.619 91.4285l-44.0952-44.0952-1.0476-1.0476-79.619-79.619-12.0953 12.0952 30.2857 30.2857c-1.0476 4.7619-1.7143 9.7143-1.7143 14.7619 0 50 66.6667 123.8095 66.6667 123.8095s15.9047-17.619 32.1904-41.4286l31.9048 31.9048 12.0952-12.0952z" fill="#fff" stroke="#fff" stroke-width=".9189"/>
</svg>