<svg class="externalPower" xmlns="http://www.w3.org/2000/svg" viewBox="0 0 132.292 79.375">
   <path d="M51.065 68.748h54.004c3.528 0 6.369-2.79 6.369-6.254v-8.06h5.113c2.833 0 5.114-2.24 5.114-5.021V37.934c0-2.782-2.28-5.022-5.114-5.022h-5.113V24.82c0-3.465-2.84-6.255-6.369-6.255H51.594v5.74h47.631c3.528 0 6.369 2.789 6.369 6.254v27.666c0 3.465-2.84 6.254-6.369 6.254h-48.16zm0-4.269l-28.225-.001c-3.528 0-6.368-2.79-6.368-6.254V30.558c0-3.465 2.84-6.255 6.368-6.255l28.754.002v-5.74l-34.597-.001c-3.529 0-6.37 2.79-6.37 6.255v37.675c0 3.465 2.841 6.254 6.37 6.254h34.068z" stroke="#000" stroke-width=".087" stroke-linecap="square" stroke-linejoin="round" paint-order="markers stroke fill"/>
   <path d="M14.292 41.65c-1.568 0-1.568 4.705 0 4.705h44.907s3.584 2.901 5.6 4.928c2.166 2.176 6.789 6.327 9.858 6.273l12.77-.224v-6.273h12.546c3.137 0 3.137-3.136 0-3.136H87.427v-9.41h12.546c3.137 0 3.137-3.136 0-3.136H87.427v-6.273l-12.994.224c-3.136.054-6.906 3.772-8.96 5.825-2.13 2.128-6.274 6.497-6.274 6.497z"/>
</svg>