<svg xmlns="http://www.w3.org/2000/svg" class="factoryState" viewBox="0 0 500 500">
   <g fill="none" stroke='#FFFFFF' stroke-width="20.8916">
      <path class='wheel' d="M177.389 440.1618l-3.4463-32.3574c-.0802-.7539-.739-1.578-1.469-1.8466-17.885-6.581-34.4312-15.6562-49.1507-26.7682-.6163-.4652-1.657-.533-2.3283-.1463L94.498 394.3038c-13.127 7.5603-31.0839 3.999-39.7662-8.1867-14.9076-20.9232-26.4598-38.966-38.4014-59.9612-7.3773-12.9706-2.1283-29.4117 11.2813-36.489l27.5762-14.554c.686-.3621 1.128-1.26.9941-2.0065-3.8917-21.691-3.6324-43.589.3546-63.8101.1468-.7444-.2752-1.6561-.9497-2.0378l-28.1054-15.9046c-13.3503-7.5547-18.1237-24.3291-10.4085-37.3264 12.1035-20.3898 23.4416-38.3194 36.6484-57.9559C62.1693 83.511 80.105 79.47 93.536 86.8886l29.8874 16.5081c.6786.3748 1.7314.3054 2.3555-.15 14.663-10.6981 31.0645-19.4046 48.741-25.6853.733-.2605 1.403-1.0771 1.4939-1.8298l4.4165-36.5492c1.6264-13.4585 13.3496-23.6186 27.3087-23.6676l75.7325-.2657c13.7981-.0484 25.305 10.2306 26.3998 23.5828l3.1527 38.4487c.0618.7555.7051 1.5828 1.4334 1.8559 16.7663 6.2873 35.157 16.7638 49.1021 26.9166.4431.3226 1.2033.3932 1.7.1552l24.3693-11.6816c16.8476-8.0759 38.5975-2.0947 48.343 13.4999 9.3522 14.9654 17.9058 29.0448 28.4772 46.661 7.7035 12.8372 3.3995 29.6466-9.5763 37.524l-28.8513 17.5154c-.1832.1112-.3093.37-.2827.578 1.0808 8.437 1.5482 21.2684 1.3558 30.453-.016.7576-.6294 1.1622-1.3652.9088-30.9739-10.6648-46.2702-8.4547-79.1646-1.7832-.764.155-1.4038-.333-1.4394-1.0902-2.662-56.6763-47.142-97.1976-104.549-97.8525-.7806-.008-2.0465-.009-2.8271.0006-57.413.7022-103.8171 44.1195-104.5952 97.8509-.012.7578-.012 1.9866 0 2.7444.778 53.7313 47.1822 97.1487 104.5952 97.8509.7806.009 1.3224.6166 1.2101 1.3666-7.1797 47.942-7.5612 52.3217-.2058 76.0185.2252.7255.5915 1.9018.8424 2.6194 4.6935 13.4264 18.8252 33.5726 27.6709 44.1878.491.5892.2617 1.0647-.519 1.0677l-63.0082.239c-14.5914.0554-26.85-10.6355-28.3506-24.7249z"/>
      <path class='circle' d="M308.6898 306.673l156.2625 157.703m23.9982-80.3287c0 56.84-45.2066 102.918-100.9718 102.918s-100.9718-46.078-100.9718-102.918 45.2066-102.918 100.9718-102.918 100.9718 46.078 100.9718 102.918z"/>
   </g>
   </svg>