<svg class='geofenceAlarm' xmlns="http://www.w3.org/2000/svg" viewBox="0 0 132.292 132.292">
  <g>
    <path d="M66.146 27.781c-15.503 0-26.458 7.938-27.781 26.459-1.007 17.441 11.787 31.606 22.85 45.971l-.441-21.497h12.328l.22 20.552C80.686 85.558 95.25 70.115 93.927 54.24 92.604 35.719 82.393 27.78 66.146 27.78zm0 11.904c7.153 0 13.229 5.556 13.229 13.232 0 7.675-6.076 13.229-13.23 13.229-7.152 0-13.228-5.553-13.228-13.23 0-7.675 6.076-13.231 13.229-13.231zM6.615 59.578h6.614v37.09H6.615zM23.813 42.711h6.614v37.09h-6.614z"/>
    <path d="M63.5 82.399h6.615v37.089H63.5zM100.542 42.546h6.614v37.089h-6.614zM119.063 58.586h6.614v37.09h-6.615zM38.759 76.597L41.4 80.14l-8.366-.236v-3.307zM93.356 76.597l-2.642 3.543 8.366-.236v-3.307zM20.706 82.02l3.082 3.308-9.246 9.922v-6.615zM110.088 78.714v6.614l6.164 6.615v-6.615zM14.542 98.557l-3.082 3.308 49.314 19.843v-6.614zM73.102 115.094v6.614l46.232-19.843-3.082-3.308z"/>
  </g>
</svg>
