<svg xmlns="http://www.w3.org/2000/svg" class="heartRate" viewBox="0 0 184.252 184.252">
  <path d="M60.31 23.24c-23.171 0-41.956 18.784-41.956 41.957a41.767 41.767 0 008.57 25.405h-.004l.033.04a42.228 42.228 0 003.842 4.372l4.08 4.646-2.35-2.685 16.971-.045 9.03-23.727L71.74 107.2l4.365-11.746 9.077.139L99.984 53.83l15.202 52.858 3.582-11.211h11.785L138.57 73.6l8.698 21.738h7.923l-.113.127c7.957-7.637 12.926-18.368 12.926-30.268 0-23.173-18.785-41.957-41.96-41.957-13.318 0-25.18 8.31-32.866 17.989C85.492 31.549 73.63 23.24 60.31 23.24zm39.252 44.506L88.17 99.89l-9.125-.139-7.217 19.414L58.566 85.05l-6.134 16.125-16.18.053 56.736 64.585 59.7-67.689-1.319 1.467h-6.98l-5.645-14.11-5.22 14.249H121.87l-6.898 21.603-15.41-53.586z"/>
</svg>