<?xml version="1.0" encoding="utf-8"?>
<!-- Generator: Adobe Illustrator 24.2.0, SVG Export Plug-In . SVG Version: 6.00 Build 0)  -->
<svg version="1.1" id="Layer_1" xmlns="http://www.w3.org/2000/svg" xmlns:xlink="http://www.w3.org/1999/xlink" x="0px" y="0px"
	 viewBox="0 0 184.3 184.3" style="enable-background:new 0 0 184.3 184.3;" xml:space="preserve">
<style type="text/css">
	.st0{fill:#FFFFFF;}
	.st1{fill:#3DB549;}
</style>
<path class="st0" d="M168,65.2c0-23.2-18.8-42-42-42c-13.3,0-25.2,8.3-32.9,18c-7.7-9.7-19.5-18-32.9-18c-23.2,0-42,18.8-42,42
	c0,9.6,3.2,18.4,8.6,25.4h0l0,0c1.2,1.5,2.5,3,3.8,4.4L93,165.8l61.7-70C162.9,88.1,168,77.3,168,65.2z"/>
<polygon class="st1" points="115,121.3 99.6,67.7 88.2,99.9 79,99.8 71.8,119.2 58.6,85 52.4,101.2 36.2,101.2 32.5,97 49.5,96.9 
	58.5,73.2 71.7,107.2 76.1,95.5 85.2,95.6 100,53.8 115.2,106.7 118.8,95.5 130.6,95.5 138.6,73.6 147.3,95.3 155.2,95.3 
	151.4,99.6 144.4,99.6 138.7,85.5 133.5,99.7 121.9,99.7 "/>
<g>
	<path class="st1" d="M29.8,40.1c1.3-0.4,3.2-0.6,5-0.6c2.8,0,4.6,0.7,5.8,2.3c1,1.3,1.6,3.2,1.6,5.4c0,3.7-1.7,6.2-3.8,7.2v0.1
		c1.6,0.8,2.5,2.8,3,5.7c0.7,4,1.1,6.7,1.6,7.8h-2.7c-0.3-0.8-0.8-3.2-1.3-6.8c-0.6-3.9-1.7-5.4-4-5.5h-2.4v12.3h-2.6V40.1z
		 M32.4,53.1H35c2.8,0,4.5-2.1,4.5-5.4c0-3.7-1.9-5.3-4.6-5.3c-1.3,0-2.1,0.2-2.6,0.3V53.1z"/>
	<path class="st1" d="M56.2,54.8h-7.8V65h8.7v3.1H45.8V39.8h10.9v3.1h-8.3v9h7.8V54.8z"/>
	<path class="st1" d="M60.1,63.6c1.2,1,2.9,1.8,4.7,1.8c2.7,0,4.2-2,4.2-4.8c0-2.6-1.1-4.2-3.8-5.6c-3.3-1.6-5.3-4-5.3-8
		c0-4.4,2.6-7.7,6.5-7.7c2.1,0,3.5,0.7,4.4,1.4l-0.7,3c-0.7-0.5-2-1.3-3.8-1.3c-2.7,0-3.8,2.3-3.8,4.2c0,2.6,1.2,4,4,5.5
		c3.4,1.8,5.1,4.2,5.1,8.3c0,4.4-2.3,8.2-7,8.2c-1.9,0-4.1-0.8-5.1-1.8L60.1,63.6z"/>
	<path class="st1" d="M79,42.9h-6.1v-3.1h14.9v3.1h-6.1v25.2H79V42.9z"/>
</g>
</svg>
