<svg id="heart_rate_variability" version="1.1" xmlns="http://www.w3.org/2000/svg" xmlns:xlink="http://www.w3.org/1999/xlink" x="0px" y="0px"
	 viewBox="0 0 269.292 198.425" xml:space="preserve">
<g>
	<path class="frame all" d="M208.558,144.566H29.629c-6.731,0-12.207-5.584-12.207-12.446V25.782c0-6.862,5.476-12.444,12.207-12.444
		h178.929c6.732,0,12.209,5.583,12.209,12.444V132.12C220.767,138.982,215.291,144.566,208.558,144.566z M29.629,19.715
		c-3.215,0-5.829,2.721-5.829,6.066V132.12c0,3.346,2.614,6.067,5.829,6.067h178.929c3.215,0,5.83-2.722,5.83-6.067V25.782
		c0-3.345-2.615-6.066-5.83-6.066H29.629z"/>
	<polygon class="chart all" points="206.398,131.49 201.494,90.681 198.501,52.625 194.742,92.312 190.554,86.34 186.695,90.845 
		164.137,90.844 159.971,94.571 155.186,78.44 148.291,90.999 142.046,122.025 141.051,62.699 138.502,91.972 134.029,86.44 
		130.475,90.845 118.861,90.845 115.284,94.02 111.627,78.925 105.701,90.639 99.057,121.369 98.251,62.323 95.546,91.837 
		91.279,86.413 87.207,90.731 65.832,90.731 61.972,93.455 57.427,78.402 50.392,90.829 44.818,122.766 42.798,58.521 
		40.489,83.843 30.77,89.581 17.851,89.581 17.851,86.746 29.996,86.746 37.798,82.14 42.076,35.221 44.904,35.305 46.781,95.023 
		47.683,89.859 58.226,71.239 63.55,88.872 64.932,87.896 85.984,87.896 91.473,82.075 93.372,84.489 97.89,35.22 100.718,35.33 
		101.551,96.42 103.09,89.522 112.57,70.781 116.929,88.77 117.785,88.01 129.119,88.01 134.027,81.929 136.287,84.725 
		140.597,35.227 143.426,35.326 144.44,95.764 145.598,90.014 155.971,71.12 161.416,89.475 163.053,88.009 185.39,88.01 
		190.779,81.722 192.646,84.384 197.22,36.077 200.044,36.1 204.314,90.401 206.525,108.802 209.039,89.713 215.816,75.247 
		218.382,76.449 211.792,90.518 	"/>
	<polygon class="arrow1 all" points="89.789,44.206 85.709,44.206 89.1,47.594 47.977,47.594 47.977,50.429 89.1,50.429 85.709,53.817 
		89.789,53.817 94.595,49.012 	"/>
	<polygon class="arrow3 all" points="189.958,44.206 185.878,44.206 189.269,47.594 145.904,47.594 145.904,50.429 189.269,50.429 
		185.878,53.817 189.958,53.817 194.765,49.012 	"/>
	<polygon class="arrow2 all" points="132.888,44.206 128.808,44.206 132.198,47.594 103.827,47.594 103.827,50.429 132.198,50.429 
		128.808,53.817 132.888,53.817 137.693,49.012 	"/>
	<path class="all innerHeart" d="M250.771,131.271c0-12.407-10.059-22.465-22.467-22.465c-7.131,0-13.482,4.449-17.598,9.631
		c-4.115-5.182-10.465-9.631-17.598-9.631c-12.408,0-22.465,10.058-22.465,22.465c0,5.114,1.711,9.825,4.589,13.602h-0.002
		l0.02,0.021c0.631,0.827,1.316,1.609,2.055,2.341l33.302,37.907l33.057-37.484C248.035,143.56,250.771,137.736,250.771,131.271z"/>
	<g>
		<path class="all outerHeart" d="M210.605,187.607l-34.487-39.256c-0.753-0.749-1.465-1.561-2.119-2.412l-0.064-0.08
			c-3.218-4.227-4.919-9.271-4.919-14.588c0-13.285,10.808-24.094,24.093-24.094c6.277,0,12.6,3.16,17.598,8.735
			c5-5.575,11.322-8.735,17.598-8.735c13.285,0,24.094,10.809,24.094,24.094c0,6.602-2.756,12.982-7.562,17.521L210.605,187.607z
			 M193.109,110.435c-11.49,0-20.836,9.347-20.836,20.837c0,4.6,1.471,8.961,4.255,12.615c0.604,0.789,1.246,1.521,1.923,2.191
			l0.078,0.082l32.08,36.518l31.941-36.207c4.25-3.986,6.592-9.384,6.592-15.199c0-11.49-9.348-20.837-20.838-20.837
			c-5.736,0-11.838,3.37-16.322,9.016l-1.275,1.606l-1.275-1.606C204.949,113.805,198.847,110.435,193.109,110.435z"/>
	</g>
</g>
</svg>
