<svg class='homeBeacon' xmlns="http://www.w3.org/2000/svg" viewBox="0 0 500 500">
  <g>
    <path d="M240 20C225 35 50 200 20 230c-7.071 7.071-3.827 20.761 0 30 3.608 8.71 11.29 16.392 20 20 6.16 2.551 15.286 4.714 20 0 30-30 180-170 190-180 15 10 165 150 190 180 4.527 5.432 13.84 2.551 20 0 8.71-3.608 16.392-11.29 20-20 3.827-9.239 7.071-22.929 0-30l-60-60V60s-5.286-10-10-10h-50c-4.714 0-10 10-10 10v40l-80-80c-7.071-7.071-22.929-7.071-30 0z"/>
    <path d="M90 295c0-3.738 2.382-7.382 5.025-10.025L245 135c2.535-2.535 8.223-2.137 10.747.409C295 175 380.198 258.969 405.159 284.163c3.154 3.184 6.095 6.647 6.07 10.321C411.23 294.484 410 425 410 475c0 3.727-6.273 5-10 5h-90c-3.727 0-10-1.273-10-5V320c0-3.727-6.273-5-10-5h-80c-3.727 0-10 1.273-10 5v155c0 3.727-6.273 5-10 5h-90c-3.727 0-10-1.273-10-5V295z"/>
  </g>
</svg>
