<svg class='homeBeaconRangeExit' xmlns="http://www.w3.org/2000/svg" viewBox="0 0 500 500">
  <g fill-rule="evenodd" stroke="#000" stroke-linecap="square" stroke-linejoin="round" paint-order="markers stroke fill">
    <path d="M357 132c3.306.495 6.587 5.299 7.723 7.337 10 17.937 21.603 33.753 32.277 49.663 1.19 1.773 3 4 8 4h55c.157-51.472-.318-101.538 0-153-31.101.279-261.841-.642-365 0v277.54S75 320 55 320c-30 0-30 65-.454 70.692C68.852 393.448 95 395 95 395v31c-8.143 6.32-46.194 37.638-55 44 78.37.05 163.515.055 250 .02L340 425c-5-4.484-64.526-89.414-95-133h-5c-5 13.453-30 71.18-40 89.118-1.234 1.611-7.766 3.384-7.766 3.384S111.509 382.116 70 380c-25 0-24.577-49.524 0-50 32.46 0 90-2.237 90-2.237s5-.845 5-2.763c10-22.421 50-132.22 55-145.673h-25c-10 13.452-30 40.358-45 58.295-5 4.484-15 8.968-30 4.484-17.846-6.311-20.332-29.313-10-40.358 10-13.453 35-44.811 50-62.748 3.408-4.484 7.954-9 15-9h125c-17.447-7.66-24-26.034-24-40 0-24.162 22.824-43 51-43s50.746 18.847 50 43c-.79 25.58-10.207 33.477-27 40" stroke-width=".085"/>
    <path d="M355 470c15-10 31.317-19.553 30.317-29.414-1.164-11.482-20.352-13.586-20.334-15.61C365 423 385 425 388.92 411.659c3.3-11.233-3.92-21.174-8.92-30.529-15-23.387-45-70.161-70-107.58-1.103-2.93-4.039-8.665-4-9.355-.348-8.699 3.305-17.322 4-18.71 5-14.032 20-51.452 25-65.484 5 9.355 15 23.387 20 32.742 5.094 9.531 10 18.71 15 18.71l90 .548c-.099 63.671.022 148.405 0 196-21.318 14.956-34.763 28.146-55 42-20.479-.088-38.099.29-50 0z" stroke-width=".087"/>
  </g>
</svg>
