<svg xmlns="http://www.w3.org/2000/svg" aria-hidden="true" data-prefix="fas" data-icon="home" class="svg-inline--fa fa-home fa-w-18" viewBox="0 0 576 512">
   <path fill="#ffc107" d="M571.6 251.47L488 182.56V44.05c0-6.6274-5.3726-12-12-12h-56c-6.6274 0-12 5.3726-12 12v72.61L318.47 43c-17.7193-14.5812-43.2807-14.5812-61 0L4.34 251.47c-5.1105 4.224-5.827 11.792-1.6 16.9l25.5 31c4.216 5.1263 11.7925 5.8567 16.91 1.63l235.22-193.74c4.465-3.599 10.835-3.599 15.3 0L530.9 301c5.108 4.227 12.676 3.5105 16.9-1.6l25.5-31c4.2238-5.139 3.4612-12.7333-1.7-16.93z"/>
   <path style="line-height:normal;font-variant-ligatures:normal;font-variant-position:normal;font-variant-caps:normal;font-variant-numeric:normal;font-variant-alternates:normal;font-variant-east-asian:normal;font-feature-settings:normal;font-variation-settings:normal;text-indent:0;text-align:start;text-decoration-line:none;text-decoration-style:solid;text-decoration-color:#000;text-transform:none;text-orientation:mixed;white-space:normal;shape-padding:0;shape-margin:0;inline-size:0;isolation:auto;mix-blend-mode:normal;solid-color:#000;solid-opacity:1" d="M288.0742 144.1152a16.0819 16.0819 0 00-11.5722 4.9278L95.918 298.4316V479.082H224A16.0819 16.0819 0 00240.082 463 16.0819 16.0819 0 00224 446.918h-95.918V313.5684l160.086-132.4336 159.8574 132.2441v133.3496h-95.918a16.0819 16.0819 0 00-16.082 16.082 16.0819 16.0819 0 0016.082 16.082h128.0801V298.2442L298.3379 147.8047a16.0819 16.0819 0 00-10.2637-3.6895z" color="#000" font-weight="400" font-family="sans-serif" overflow="visible" fill="#ffc107"/>
</svg>