<?xml version="1.0" encoding="UTF-8" standalone="no"?>
<svg
   xmlns:dc="http://purl.org/dc/elements/1.1/"
   xmlns:cc="http://creativecommons.org/ns#"
   xmlns:rdf="http://www.w3.org/1999/02/22-rdf-syntax-ns#"
   xmlns:svg="http://www.w3.org/2000/svg"
   xmlns="http://www.w3.org/2000/svg"
   xmlns:sodipodi="http://sodipodi.sourceforge.net/DTD/sodipodi-0.dtd"
   xmlns:inkscape="http://www.inkscape.org/namespaces/inkscape"
   version="1.1"
   id="svg3831"
   width="24"
   height="24"
   viewBox="0 0 24 24"
   sodipodi:docname="locateDeviceTest.svg"
   inkscape:version="0.92.4 (5da689c313, 2019-01-14)">
  <metadata
     id="metadata835">
    <rdf:RDF>
      <cc:Work
         rdf:about="">
        <dc:format>image/svg+xml</dc:format>
        <dc:type
           rdf:resource="http://purl.org/dc/dcmitype/StillImage" />
        <dc:title />
      </cc:Work>
    </rdf:RDF>
  </metadata>
  <defs
     id="defs833" />
  <sodipodi:namedview
     pagecolor="#ffffff"
     bordercolor="#666666"
     borderopacity="1"
     objecttolerance="10"
     gridtolerance="1"
     guidetolerance="10"
     inkscape:pageopacity="0"
     inkscape:pageshadow="2"
     inkscape:window-width="1920"
     inkscape:window-height="1137"
     id="namedview831"
     showgrid="false"
     inkscape:zoom="40.333334"
     inkscape:cx="6.648563"
     inkscape:cy="11.533285"
     inkscape:window-x="-8"
     inkscape:window-y="-8"
     inkscape:window-maximized="1"
     inkscape:current-layer="svg3831" />
  <path
     d="M 20.94,11 C 20.48,6.83 17.17,3.52 13,3.06 V 1 H 11 V 3.06 C 6.83,3.52 3.52,6.83 3.06,11 H 1 v 2 h 2.06 c 0.46,4.17 3.77,7.48 7.94,7.94 V 23 h 2 V 20.94 C 17.17,20.48 20.48,17.17 20.94,13 H 23 V 11 Z M 12,19.6662 c -3.87,0 -7.490884,-3.831263 -7.490884,-7.701263 0,-3.8700001 3.5507577,-7.4908842 7.420758,-7.4908842 3.87,0 7.701263,3.6559472 7.701263,7.5259472 0,3.87 -3.761137,7.6662 -7.631137,7.6662 z"
     id="path826"
     inkscape:connector-curvature="0"
     sodipodi:nodetypes="cccccccccccccccccsssss" />
  <path
     d="m 15.834711,12 c 0,-1.217521 -0.570413,-2.3056198 -1.45719,-3.0054545 L 13.917355,6.2479339 h -3.83471 L 9.6272727,8.9945455 C 8.7357025,9.6943802 8.1652893,10.777686 8.1652893,12 c 0,1.222314 0.5704132,2.30562 1.4619834,3.005455 l 0.4553723,2.746611 h 3.83471 l 0.460166,-2.746611 C 15.264298,14.30562 15.834711,13.217521 15.834711,12 Z m -6.7107441,0 c 0,-1.586612 1.2894211,-2.8760331 2.8760331,-2.8760331 1.586612,0 2.876033,1.2894211 2.876033,2.8760331 0,1.586612 -1.289421,2.876033 -2.876033,2.876033 -1.586612,0 -2.8760331,-1.289421 -2.8760331,-2.876033 z"
     id="path828"
     inkscape:connector-curvature="0"
     style="stroke-width:0.47933885" />
  <path
     d="M 14.116608,6.1793275 H 9.8833918 c -0.8783924,0 -1.5874561,0.7090637 -1.5874561,1.5874561 v 8.4664324 c 0,0.878393 0.7090637,1.587456 1.5874561,1.587456 h 4.2332162 c 0.878393,0 1.587456,-0.709063 1.587456,-1.587456 V 7.7667836 c 0,-0.8783924 -0.709063,-1.5874561 -1.587456,-1.5874561 z M 13.058304,16.762368 h -2.116608 v -0.529152 h 2.116608 z m 1.719744,-1.587456 H 9.2219518 V 7.7667836 h 5.5560962 z"
     id="path923"
     inkscape:connector-curvature="0"
     style="stroke-width:0.52915204" />
  <g
     id="g1493">
    <rect
       transform="rotate(135)"
       y="-17.670563"
       x="-11"
       height="1.4"
       width="22"
       id="rect1474"
       style="opacity:1;fill:#000d00;fill-opacity:1;stroke:none;stroke-width:0.47999999;stroke-linejoin:bevel;stroke-miterlimit:4;stroke-dasharray:none;stroke-opacity:1" />
    <rect
       transform="rotate(45)"
       y="-0.70000052"
       x="5.9705634"
       height="1.4"
       width="22"
       id="rect1474-3"
       style="opacity:1;fill:#000d00;fill-opacity:1;stroke:none;stroke-width:0.47999999;stroke-linejoin:bevel;stroke-miterlimit:4;stroke-dasharray:none;stroke-opacity:1" />
  </g>
</svg>
