<svg class='locationMarker' xmlns="http://www.w3.org/2000/svg" viewBox="0 0 500 500">
  <path d="M250 280c-40 0-76.451-29.604-75-75 1.21-37.84 35-75 75-75 38.995 0 75 37.176 75 75 0 45.388-35 75-75 75zm132 20c-19.96 32.336-76.367 107.18-132 160-56.938-54.453-107.22-120.185-132-160-14.586-23.435-28-57.047-28-110 0-68.082 68.99-131.087 160-130 97.054 1.16 160 69.482 160 130 1.447 50.174-14.017 87.346-28 110z" fill-rule="evenodd"/>
  <path class='center' d="M324.384 213.05a77.254 77.254 0 01-84.21 69.355 77.254 77.254 0 01-69.6-84.006 77.254 77.254 0 0183.802-69.846 77.254 77.254 0 0170.09 83.598" fill="transparent" stroke="#000" stroke-width=".483" stroke-linecap="square" stroke-linejoin="round"/>
</svg>
