<svg xmlns="http://www.w3.org/2000/svg" viewBox="0 0 281.25 468.75">
	<path d="M47.2273 51.2473c-19.8588 21.2306-32.2976 52.1575-31.8146 81.2476 1.0091 60.7896 28.3626 83.8016 72.1068 167.4671 15.7574 36.8162 32.2035 75.7724 47.845 140.292 2.1738 9.5172 4.2938 18.3573 5.2745 19.1232.9798.7668 3.1006-8.105 5.2743-17.6221 15.6417-64.5199 32.0878-103.445 47.8451-140.2612 43.7442-83.6654 71.098-106.6776 72.1068-167.4672.4832-29.09-11.9867-60.0479-31.8454-81.2785-22.6852-24.2524-56.9018-42.201-93.3808-42.9514-36.4792-.7508-70.7264 17.198-93.4117 41.4505z" fill="#eec25a" stroke="#c69b37" stroke-width="16"/>
</svg>