<svg class='locationNotAvailableMarker' xmlns="http://www.w3.org/2000/svg" viewBox="0 0 500 500">
  <path d="M340 350c-26.082 34.018-55.982 77.694-90 110-33.8-32.334-70-80-90-110l70-70c20 5 20 5 40 0zm43-230c17.3 21.468 27 46.494 27 70 1.447 50.173-11.914 79.994-30 110l-60-60c6.49-19.937 7.379-41.965 0-60zm-105 16c-8.53-3.753-18.676-6-28-6a68.731 68.731 0 00-28 6l-52-56c23.621-11.589 52.491-20.118 80-20 27.509.118 57.344 8.979 80 20zm-98 44c-6.626 17.787-7.076 43.755 0 60l-60 60c-17.992-40.006-30-57.049-30-110 0-26.29 10.134-48.623 28-70z" fill-rule="evenodd" stroke-width="0"/>
  <path d="M100 80l130 130L90 350l20 20 140-140 140 140 20-20-140-140L400 80l-20-20-130 130L120 60z" />
</svg>
