<svg class='manDown' xmlns="http://www.w3.org/2000/svg" viewBox="0 0 132.292 132.292">
  <g transform="translate(0 -164.708)">
    <path d="M62.993 247.445c-4.494-3.625-7.367-20.12-11.748-28.506-7.29 1.92-16.342 4.672-21.926 4.599-5.738-4.127-10.729-13.893-13-20.28-2.074-4.136 3.703-6.657 5.348-3.667 2.738 5.893 5.508 10.674 8.61 14.724 7.554.414 14.666-3.025 20.366-4.658 5.709-2.517 10.636-5.77 15.65-7.458 5.538-2.969 12.076-5.92 15.036-8.426 3.39-3.377 6.462-7.055 9.215-10.747 2.32-2.542 6.038.679 5.027 3.164-2.19 5.254-9.076 12.304-11.915 15.241-4.262 3.806-8.48 4.876-12.001 7.869-1.752.934-2.62 2.332-2.978 4.205 1.59 6.382 3.549 7.317 6.258 14.383 1.493 2.318.874 3.866 2.736 4.436 4.308-1.275 9.775-5.658 14.439-9.025 1.836-.849 2.895-1.705 5.55-.033 8.066 3.308 16.402 7.765 22.755 11.228 3.727 2.494 1.123 9.27-2.32 7.43-7.84-3.416-15.084-7.108-20.695-9.715 0 0-2.061-.183-3.413.512-6.7 5.373-19.488 14.65-26.25 16.719-1.062-.038-4.504-1.5-4.744-1.995zM99.002 285.2c-4.126-7.175-7.214-16.156-10.29-21.792-4.405-3.373-7.719-4.453-12.225-6.7-.482-.736-.171-2.002.588-2.31 2.063-1.208 4.202-3.044 7.846-3.617 3.663 1.27 10.54 3.452 11.76 7.319 3.7 8.289 6.135 15.171 8.708 22.05 1.545 6.322-4.47 7.566-6.387 5.05z"/>
    <ellipse cx="53.317" cy="190.716" rx="9.48" ry="10.133"/>
  </g>
</svg>
