<svg class='noMovement' xmlns="http://www.w3.org/2000/svg" viewBox="0 0 132.292 132.292">
  <g transform="translate(0 -164.708)">
    <rect width="150.698" height="12.717" x="125.366" y="110.88" ry="6.359" rx="8.637" transform="matrix(.70785 .70637 -.61515 .78841 0 0)"/>
    <path d="M36.627 187.43l20.523 20.313s2.355-12.332 0-17.64c-2.03-4.575-5.754-9.427-10.802-9.355-6.371.092-9.721 6.682-9.721 6.682zM77.508 228.846l26.193 25.925s3.377-19.845.534-29.132c-1.18-3.852-3.848-7.317-6.949-9.889-2.486-2.062-5.893-4.489-9.087-4.009-4.12.619-6.241 3.587-8.285 7.216-1.467 2.604-2.406 9.89-2.406 9.89zM31.003 208.801l21.914 22.053v10.583c0 7.938-3.664 13.23-7.938 13.23-5.292 0-7.937-2.646-10.583-10.584-2.646-10.583-2.043-14.266-2.646-21.166-.427-4.885-.747-14.116-.747-14.116zM81.25 259.048l17.64 18.441s-1.038 4.798-2.94 6.415c-1.73 1.47-3.891 2.677-6.147 2.94-2.083.242-4.415-.155-6.148-1.337-1.327-.904-2.108-2.505-2.672-4.009-.726-1.934-.827-4.08-.802-6.147.063-5.229 1.069-16.303 1.069-16.303z"/>
  </g>
</svg>
