<svg class='prohibitedAreaEnter' xmlns="http://www.w3.org/2000/svg" viewBox="0 0 132.292 132.292" fill="#69f">
  <g transform="translate(0 -164.708)">
    <path d="M83.457 235.184c-3.347-1.817-6.16-4.7-9.106-7.25-3.173-2.856-7.327-7.781-8.588-10.415-.416-1.066-.155-2.55.433-2.866 3.07-.807 4.93-.648 6.885.753 3.193 3.47 2.803 6.934 5.572 10.156 2.236 1.464 5.29 5.459 7.42 6.97 1.317 1.567-.587 3.686-2.616 2.652zM50.714 255.62c.982-3.064 4.887-6.456 6.171-8.89 1.78-4.897 3.057-6.687 4.153-10.382.354-1.261 1.175-.97 2.535.412 1.291 1.311 2.811 2.914 2.57 4.042-.651 3.579-2.14 6.995-4.324 9.797-1.15 1.576-4.87 6.423-6.476 7.985-1.055 1.24-6.172 0-4.629-2.964zM76.452 258.654c-.568-.48-1.087-1.29-1.693-2.223-1.135-1.745-1.247-6.25-.676-7.056 1.245 1.086 5.786 5.542 5.97 6.048 2.358 2.497-1.865 4.859-3.601 3.231zM54.706 235.684c-1.314-.167-2.166-1.243-1.776-2.574.059-1.132 2.382-3.62 3.243-3.334.955.352 2.44 1.558 3.358 2.401.73.891-.61 2.664-2.044 3.385-1.022.296-1.307.309-2.781.122zM34.396 239.056H13.229v-9.525h21.167v-7.673l15.875 12.436-15.875 12.435z"/>
    <path d="M69.228 190.914c-20.3 0-37.086 14.348-41.447 33.326l2.36.108c.351-1.617 2.056-5.651 2.932-6.723 0 0 2.646 1.323 3.545 1.538 2.04-3.824 3.637-5.777 6.072-8.572l47.738 52.056a35.378 35.378 0 01-20.932 6.815c-14.147 0-26.363-8.266-32.082-20.232l-4.341 1.468c-1.146-1.765-1.991-4.62-2.489-6.646-.157.031-2.824.004-2.824.004 4.644 18.58 21.449 32.344 41.468 32.344 23.606 0 42.742-19.137 42.742-42.743s-19.136-42.743-42.742-42.743zm.268 7.472c19.627 0 35.537 15.911 35.537 35.538 0 8.65-3.09 16.579-8.227 22.742l-47.82-51.767a35.376 35.376 0 0120.51-6.513z"/>
    <ellipse cx="72.345" cy="207.959" rx="5.386" ry="5.225"/>
  </g>
</svg>
