<svg class='prohibitedAreaExit' xmlns="http://www.w3.org/2000/svg" viewBox="0 0 132.292 132.292">
  <g>
    <path d="M54.773 70.73c-.624-.125-1.028-.933-.843-1.93.028-.85 1.13-2.716 1.54-2.501.453.264 1.158 1.168 1.593 1.8.346.67-.29 1.998-.97 2.54-.485.222-.62.23-1.32.09z"/>
    <path d="M67.634 25.665c-18.984 0-35.077 12.449-40.651 29.673l4.767-2.077 1.323 6.654c1.553-4.52 4.942-10.891 8.022-14.458L88.834 97.82a35.24 35.24 0 01-20.933 6.856c-15.137 0-28.063-9.52-33.186-22.931l-1.642-4.531-1.323 6.654-4.46-.973c5.84 16.75 21.698 28.76 40.344 28.76 23.606 0 42.742-19.25 42.742-42.996 0-23.745-19.136-42.994-42.742-42.994zm.267 7.516c19.627 0 35.538 16.004 35.538 35.747a35.73 35.73 0 01-8.227 22.876L47.392 39.73a35.234 35.234 0 0120.51-6.55z"/>
    <path d="M29.104 72.157h21.167v-6.92H29.104V58.85L13.23 68.697l15.875 9.848z"/>
    <g transform="translate(-1.058 -164.18)">
      <path d="M83.457 235.184c-3.347-1.817-6.16-4.7-9.106-7.25-3.173-2.856-7.327-7.781-8.588-10.415-.416-1.066-.155-2.55.433-2.866 3.07-.807 4.93-.648 6.885.753 3.193 3.47 2.803 6.934 5.572 10.156 2.236 1.464 5.29 5.459 7.42 6.97 1.317 1.567-.587 3.686-2.616 2.652zM50.714 255.62c.982-3.064 4.887-6.456 6.171-8.89 1.78-4.897 3.057-6.687 4.153-10.382.354-1.261 1.175-.97 2.535.412 1.291 1.311 2.811 2.914 2.57 4.042-.651 3.579-2.14 6.995-4.324 9.797-1.15 1.576-4.87 6.423-6.476 7.985-1.055 1.24-6.172 0-4.629-2.964zM76.452 258.654c-.568-.48-1.087-1.29-1.693-2.223-1.135-1.745-1.247-6.25-.676-7.056 1.245 1.086 5.786 5.542 5.97 6.048 2.358 2.497-1.865 4.859-3.601 3.231zM54.706 235.684c-1.314-.167-2.166-1.243-1.776-2.574.059-1.132 2.382-3.62 3.243-3.334.955.352 2.44 1.558 3.358 2.401.73.891-.61 2.664-2.044 3.385-1.022.296-1.307.309-2.781.122z"/>
      <ellipse ry="5.225" rx="5.386" cy="207.959" cx="72.345"/>
    </g>
    <path d="M29.104 73.29H50.27v-9.525H29.104v-7.673L13.229 68.527l15.875 12.436z"/>
  </g>
</svg>
