<svg class="respiratoryRate" version="1.1" xmlns="http://www.w3.org/2000/svg" xmlns:xlink="http://www.w3.org/1999/xlink" x="0px" y="0px"
	viewBox="0 0 184.252 184.252" xml:space="preserve">
<path class="all lungs" d="M164.601,84.282c-12.068-23.241-41.12-43.355-49.704-43.401c-4.953,0-8.967,4.015-8.967,8.966l-0.025,20.842
	l-8.736-9.484V23.266c0-2.511-2.035-4.546-4.547-4.546c-2.511,0-4.547,2.035-4.547,4.546v38.147l-8.502,9.23l-0.025-20.797
	c0-4.951-4.016-8.966-8.968-8.966c-8.583,0.046-37.636,20.16-49.704,43.401C9.638,105.925,6.331,138.088,7.01,154.875
	c0,4.951,3.81,10.307,8.967,8.965l54.603-18.248c5.942-1.641,9.071-6.334,9.071-13.932L79.59,84.048l13.128-14.252l13.169,14.297
	l-0.062,47.568c0,7.598,3.129,12.291,9.071,13.932L169.5,163.84c5.158,1.342,8.967-4.014,8.967-8.965
	C179.146,138.088,175.839,105.925,164.601,84.282z"/>
<path class="all line1" d="M79.263,124.101c-1.726,0-3.889-1.028-4.957-2.176c-0.354-0.38-1.85-2.408-1.943-3.708
	c-0.066-0.918-1.507-23.26-1.507-23.26c-2.375,0.147-6.647,0.414-9.624,0.612c-2.681,0.179-3.343,2.363-3.407,2.936
	c-0.109,1.536-1.166,16.404-1.583,20.531c-0.211,2.083-0.956,3.562-2.215,4.396c-1.19,0.789-2.433,0.618-3.037,0.594
	c-1.452,0.029-5.104-0.08-6.283-0.053c-0.029,0-0.033,0.015-0.165,0.011c-1.2-0.038-2.044-0.164-3.924-1.471
	c-2.773-1.928-2.789-3.9-2.775-4.978l-1.33-22.607c-2.396,0.113-6.755,0.342-9.697,0.637c-2.677,0.268-3.457,2.547-3.612,3.123
	c-0.523,7.913-1.322,20.643-1.296,22.027c-0.013,1.503-1.373,3.062-2.97,3.198c-1.499,0.127-3.947,0.067-3.947,0.067
	c-2.175,0.001-3.97,0.035-5.921,0.01l0.576-3.54c0.274-0.012,6.56,0.056,8.124,0.038c0.368,0,0.602-0.087,0.607-0.313
	c0.033-1.688,0.281-6.487,1.301-21.874l0.032-0.242c0.391-1.888,2.305-5.575,6.753-6.02c4.329-0.434,11.349-0.717,11.645-0.729
	l1.737-0.07c0,0,1.548,26.214,1.569,26.67c0.025,0.549,0.271,0.824,1.12,1.564c1.184,1.031,2.025,1.031,2.982,1.031
	c0.81-0.019-0.387-0.003,6.166,0.051c-0.01-0.003,0.017,0.003,0.078,0.002c0.083,0,0.216-0.013,0.324-0.091
	c0.114-0.082,0.497-0.453,0.632-1.788c0.425-4.208,1.57-20.369,1.581-20.532l0.021-0.176c0.332-1.922,2.154-5.637,6.677-5.938
	c4.332-0.29,11.406-0.723,11.406-0.723l1.763-0.107c0,0,1.641,25.462,1.688,26.074s0.557,1.528,1.155,2.33s1.312,0.969,2.498,0.948
	c0.26-0.003-0.166-0.006,0.13,0v3.543c-0.255-0.005,0.137-0.002-0.087,0C79.453,124.101,79.358,124.101,79.263,124.101z"/>
<path class="all line2" d="M169.763,124.101c-1.726,0-3.199-0.291-5.022-2.263s-1.878-3.622-1.878-3.622l-1.507-23.26
	c-2.375,0.147-6.647,0.414-9.624,0.612c-2.681,0.179-3.343,2.363-3.407,2.936c-0.109,1.536-1.166,16.404-1.583,20.531
	c-0.211,2.083-0.956,3.562-2.215,4.396c-1.19,0.789-2.433,0.618-3.037,0.594c-1.452,0.029-5.104-0.08-6.283-0.053
	c-0.029,0-0.033,0.015-0.165,0.011c-1.2-0.038-2.044-0.164-3.924-1.471c-2.773-1.928-2.758-4.054-2.775-4.978l-1.33-22.607
	c-2.396,0.113-6.755,0.342-9.697,0.637c-2.677,0.268-3.457,2.547-3.612,3.123c-0.523,7.913-1.322,20.643-1.296,22.027
	c-0.013,1.503-1.373,3.062-2.97,3.198c-1.499,0.127-1.679,0.13-3.63,0.105l0.021-3.512c0.274-0.012,0.877,0,2.441-0.019
	c0.368,0,0.602-0.087,0.607-0.313c0.033-1.688,0.281-6.487,1.301-21.874l0.032-0.242c0.391-1.888,2.305-5.575,6.753-6.02
	c4.329-0.434,11.349-0.717,11.645-0.729l1.737-0.07c0,0,1.539,26.028,1.565,26.485s0.184,0.979,1.01,1.714
	c1.282,1.14,2.14,1.067,3.097,1.067c0.81-0.019-0.387-0.003,6.166,0.051c-0.01-0.003,0.017,0.003,0.078,0.002
	c0.083,0,0.216-0.013,0.324-0.091c0.114-0.082,0.497-0.453,0.632-1.788c0.425-4.208,1.57-20.369,1.581-20.532l0.021-0.176
	c0.332-1.922,2.154-5.637,6.677-5.938c4.332-0.29,11.406-0.723,11.406-0.723l1.763-0.107c0,0,1.604,25.139,1.688,26.074
	s0.696,1.888,1.155,2.33s1.312,0.969,2.498,0.948c0.26-0.003,5.55-0.006,5.846,0l0.538,3.543c-0.255-0.005-4.344,0.019-4.567,0.021
	C171.726,124.122,169.858,124.101,169.763,124.101z"/>
</svg>
