<svg xmlns="http://www.w3.org/2000/svg" class="settingsOk" viewBox="0 0 500 500">
   <g fill="none" stroke-width="21.6129" stroke='#FFFFFF' stroke-linecap="round">
      <path class='wheel' d="M375.5174 393.9324c-15.795 15.904-27.2823 23.1332-53.1287 30.3623-.7803 8.6426-1.9847 26.2513-2.9218 40.5292-.7843 11.951-11.0292 21.6412-22.9246 21.6412h-86.1548c-12.2467 0-22.5199-9.3038-23.8131-21.566l-4.3101-40.8676c-19.1437-7.1438-36.802-17.1973-52.401-29.603l-33.7694 20.1737c-10.2304 6.1116-24.2112 3.2238-31.0396-6.5837-18.336-26.3354-31.6156-47.8656-45.878-74.3476-5.6706-10.5289-1.5958-23.8098 8.8549-29.531l35.0136-19.1678c-4.306-23.8266-4.0152-47.9354.3843-70.0741l-35.7359-20.976c-10.2768-6.032-13.9427-19.4205-8.0494-29.8248 14.763-26.0633 28.0884-47.9197 44.4257-72.871 6.5476-9.9999 20.3456-13.2318 30.6846-7.3084l37.5895 21.536c15.554-11.9566 33.071-21.6093 52.0048-28.4277l5.0388-43.2517c1.4321-12.293 11.7555-21.5733 24.0479-21.618l83.5405-.3041c12.1506-.0442 22.2835 9.3447 23.2476 21.5406l3.5787 45.2705c17.712 6.68 37.4056 18.3223 52.0323 29.4918l37.3416-18.5666c10.666-5.3033 24.4254-1.3697 30.6488 8.838 13.3739 21.9358 24.1248 40.2895 39.034 66.1053 5.9798 10.3542 2.6375 23.9045-7.448 30.2554l-35.2475 22.1955c4.278 15.0172 4.278 51.1628 1.4063 67.067 14.1988 5.8869 23.709 11.563 32.1908 17.1116 9.9742 6.525 13.411 20.3083 7.6947 30.8123-14.094 25.8984-25.9868 47.8434-39.9762 71.0278-6.1763 10.236-19.955 13.9262-30.4017 8.1993-9.1796-5.0323-19.3152-10.3815-35.5596-17.2684z"/>
      <path class='check' d="M209.9207 219.4962l42.9899 62.0824 135.1652-131.3058"/>
      <path class='checkCircle' d="M316.192 165.5327c-18.1477-13.3858-40.857-21.245-65.4993-21.245-59.4764 0-107.6916 46.8098-107.6916 104.5528s48.2152 104.5528 107.6916 104.5528c61.6446.0558 107.6917-40.427 107.6917-104.5528 0-4.1433-.2396-8.222-.706-12.2246"/>
   </g>
</svg>