<svg xmlns="http://www.w3.org/2000/svg" viewBox="0 0 500 500">
  <defs>
    <path id="a" d="M18.5208 10.5833h92.6042v47.625H18.5208z" stroke="#d32f2f"/>
  </defs>
  <g fill="#d32f2f" stroke="#d32f2f" stroke-width="7.9375">
    <path d="M212.3756 367.4485a96.2366 96.2366 0 01-96.2366 96.2366 96.2366 96.2366 0 01-96.2366-96.2366 96.2366 96.2366 0 0196.2366-96.2365 96.2366 96.2366 0 0196.2366 96.2365zM480 367.4485a96.2366 96.2366 0 01-96.2366 96.2366 96.2366 96.2366 0 01-96.2365-96.2366 96.2366 96.2366 0 0196.2365-96.2365A96.2366 96.2366 0 01480 367.4485zM116.139 463.7933h267.6245" stroke-width="32.11496625"  fill="#d32f2f" stroke="#d32f2f"/>
  </g>
  <text transform="matrix(3.99951 0 0 4.09298 -17.6732 -33.9881)" y="54.141" x="9.7357"  font-weight="400" font-size="55.3279"  stroke-width=".3842" stroke="currentColor" fill="#d32f2f">
    <tspan  y="54.141" x="9.7357" stroke="currentColor">SOS</tspan>
  </text>
</svg>
