<?xml version="1.0" encoding="UTF-8" standalone="yes" ?><svg xmlns:xlink="http://www.w3.org/1999/xlink" xmlns="http://www.w3.org/2000/svg" version="1.1" fill="none" stroke="none" stroke-width="0" class="dxc dxc-chart" style="line-height: normal; user-select: none; -webkit-tap-highlight-color: rgba(0, 0, 0, 0); display: block; overflow: hidden; background-color: rgb(255, 255, 255);" width="1010" height="400" direction="ltr"><defs><filter id="DevExpress_7" x="-50%" y="-50%" width="200%" height="200%" transform="translate(0,0)"><feGaussianBlur in="SourceGraphic" result="gaussianBlurResult" stdDeviation="3"></feGaussianBlur><feOffset in="gaussianBlurResult" result="offsetResult" dx="2" dy="6"></feOffset><feFlood result="floodResult" flood-color="#d3d3d3" flood-opacity="0.8"></feFlood><feComposite in="floodResult" in2="offsetResult" operator="in" result="compositeResult"></feComposite><feComposite in="SourceGraphic" in2="compositeResult" operator="over"></feComposite></filter><clipPath id="DevExpress_9"><rect x="0" y="0" width="1010" height="380" transform="translate(0,0)"></rect></clipPath><clipPath id="DevExpress_11"><rect x="31" y="52" width="956" height="304" transform="translate(0,0)"></rect></clipPath><clipPath id="DevExpress_12"><rect x="31" y="52" width="956" height="304" transform="translate(0,0)"></rect></clipPath></defs><rect x="0" y="0" width="1010" height="380" transform="translate(0,0)" fill="gray" opacity="0.0001"></rect><g class="dxc-background"></g><g class="dxc-strips-group"><g class="dxc-val-strips" clip-path="url(#DevExpress_11)"></g><g class="dxc-arg-strips" clip-path="url(#DevExpress_11)"></g></g><g class="dxc-grids-group"><g class="dxc-val-grid"><path d="M 31 356 L 987 356" transform="translate(0,0.5)" stroke="#d3d3d3" stroke-width="1" opacity="1"></path><path d="M 31 313 L 987 313" transform="translate(0,0.5)" stroke="#d3d3d3" stroke-width="1" opacity="1"></path><path d="M 31 269 L 987 269" transform="translate(0,0.5)" stroke="#d3d3d3" stroke-width="1" opacity="1"></path><path d="M 31 226 L 987 226" transform="translate(0,0.5)" stroke="#d3d3d3" stroke-width="1" opacity="1"></path><path d="M 31 182 L 987 182" transform="translate(0,0.5)" stroke="#d3d3d3" stroke-width="1" opacity="1"></path><path d="M 31 139 L 987 139" transform="translate(0,0.5)" stroke="#d3d3d3" stroke-width="1" opacity="1"></path><path d="M 31 95 L 987 95" transform="translate(0,0.5)" stroke="#d3d3d3" stroke-width="1" opacity="1"></path><path d="M 31 52 L 987 52" transform="translate(0,0.5)" stroke="#d3d3d3" stroke-width="1" opacity="1"></path></g><g class="dxc-arg-grid"><path d="M 31 52 L 31 356" transform="translate(0.5,0)" stroke="#d3d3d3" stroke-width="1" opacity="1"></path><path d="M 168 52 L 168 356" transform="translate(0.5,0)" stroke="#d3d3d3" stroke-width="1" opacity="1"></path><path d="M 304 52 L 304 356" transform="translate(0.5,0)" stroke="#d3d3d3" stroke-width="1" opacity="1"></path><path d="M 441 52 L 441 356" transform="translate(0.5,0)" stroke="#d3d3d3" stroke-width="1" opacity="1"></path><path d="M 577 52 L 577 356" transform="translate(0.5,0)" stroke="#d3d3d3" stroke-width="1" opacity="1"></path><path d="M 714 52 L 714 356" transform="translate(0.5,0)" stroke="#d3d3d3" stroke-width="1" opacity="1"></path><path d="M 850 52 L 850 356" transform="translate(0.5,0)" stroke="#d3d3d3" stroke-width="1" opacity="1"></path><path d="M 987 52 L 987 356" transform="translate(0.5,0)" stroke="#d3d3d3" stroke-width="1" opacity="1"></path></g></g><g class="dxc-axes-group"><g class="dxc-val-axis" transform="translate(0,0)" clip-path="url(#DevExpress_9)"><g class="dxc-val-elements"><text style="white-space:pre;fill:#767676;font-family:'Segoe UI', 'Helvetica Neue', 'Trebuchet MS', Verdana, sans-serif;font-weight:400;font-size:12px;cursor:default;" x="31" y="356" transform="translate(-17,4)" text-anchor="middle">30</text><text style="white-space:pre;fill:#767676;font-family:'Segoe UI', 'Helvetica Neue', 'Trebuchet MS', Verdana, sans-serif;font-weight:400;font-size:12px;cursor:default;" x="31" y="313" transform="translate(-17,4)" text-anchor="middle">40</text><text style="white-space:pre;fill:#767676;font-family:'Segoe UI', 'Helvetica Neue', 'Trebuchet MS', Verdana, sans-serif;font-weight:400;font-size:12px;cursor:default;" x="31" y="269" transform="translate(-17,4)" text-anchor="middle">50</text><text style="white-space:pre;fill:#767676;font-family:'Segoe UI', 'Helvetica Neue', 'Trebuchet MS', Verdana, sans-serif;font-weight:400;font-size:12px;cursor:default;" x="31" y="226" transform="translate(-17,4)" text-anchor="middle">60</text><text style="white-space:pre;fill:#767676;font-family:'Segoe UI', 'Helvetica Neue', 'Trebuchet MS', Verdana, sans-serif;font-weight:400;font-size:12px;cursor:default;" x="31" y="182" transform="translate(-17,4)" text-anchor="middle">70</text><text style="white-space:pre;fill:#767676;font-family:'Segoe UI', 'Helvetica Neue', 'Trebuchet MS', Verdana, sans-serif;font-weight:400;font-size:12px;cursor:default;" x="31" y="139" transform="translate(-17,4)" text-anchor="middle">80</text><text style="white-space:pre;fill:#767676;font-family:'Segoe UI', 'Helvetica Neue', 'Trebuchet MS', Verdana, sans-serif;font-weight:400;font-size:12px;cursor:default;" x="31" y="95" transform="translate(-17,4)" text-anchor="middle">90</text><text style="white-space:pre;fill:#767676;font-family:'Segoe UI', 'Helvetica Neue', 'Trebuchet MS', Verdana, sans-serif;font-weight:400;font-size:12px;cursor:default;" x="31" y="52" transform="translate(-20,4)" text-anchor="middle">100</text></g><g class="dxc-val-line"></g><g class="dxc-val-title"></g></g><g class="dxc-arg-axis" transform="translate(0,0)" clip-path="url(#DevExpress_9)"><g class="dxc-arg-elements"><text style="white-space:pre;fill:#767676;font-family:'Segoe UI', 'Helvetica Neue', 'Trebuchet MS', Verdana, sans-serif;font-weight:400;font-size:12px;cursor:default;" x="31" y="356" transform="translate(0,21)" text-anchor="middle">8/2019</text><text style="white-space:pre;fill:#767676;font-family:'Segoe UI', 'Helvetica Neue', 'Trebuchet MS', Verdana, sans-serif;font-weight:400;font-size:12px;cursor:default;" x="168" y="356" transform="translate(0,21)" text-anchor="middle">9/2019</text><text style="white-space:pre;fill:#767676;font-family:'Segoe UI', 'Helvetica Neue', 'Trebuchet MS', Verdana, sans-serif;font-weight:400;font-size:12px;cursor:default;" x="304" y="356" transform="translate(0.5,21)" text-anchor="middle">10/2019</text><text style="white-space:pre;fill:#767676;font-family:'Segoe UI', 'Helvetica Neue', 'Trebuchet MS', Verdana, sans-serif;font-weight:400;font-size:12px;cursor:default;" x="441" y="356" transform="translate(0.5,21)" text-anchor="middle">11/2019</text><text style="white-space:pre;fill:#767676;font-family:'Segoe UI', 'Helvetica Neue', 'Trebuchet MS', Verdana, sans-serif;font-weight:400;font-size:12px;cursor:default;" x="577" y="356" transform="translate(0.5,21)" text-anchor="middle">12/2019</text><text style="white-space:pre;fill:#767676;font-family:'Segoe UI', 'Helvetica Neue', 'Trebuchet MS', Verdana, sans-serif;font-weight:400;font-size:12px;cursor:default;" x="714" y="356" transform="translate(0.5,21)" text-anchor="middle">13/2019</text><text style="white-space:pre;fill:#767676;font-family:'Segoe UI', 'Helvetica Neue', 'Trebuchet MS', Verdana, sans-serif;font-weight:400;font-size:12px;cursor:default;" x="850" y="356" transform="translate(0.5,21)" text-anchor="middle">14/2019</text><text style="white-space:pre;fill:#767676;font-family:'Segoe UI', 'Helvetica Neue', 'Trebuchet MS', Verdana, sans-serif;font-weight:400;font-size:12px;cursor:default;" x="987" y="356" transform="translate(0.5,21)" text-anchor="middle">15/2019</text></g><g class="dxc-arg-line"></g><g class="dxc-arg-title"></g></g></g><g class="dxc-strips-labels-group"><g class="dxc-val-axis-labels"></g><g class="dxc-arg-axis-labels"></g></g><g class="dxc-border"></g><g class="dxc-series-group"><g class="dxc-series"><g class="dxc-elements" stroke="none" fill="#669e45" opacity="0.5" clip-path="url(#DevExpress_12)"><path d="M 31 486 L 168 239 L 304 230 L 441 208 L 577 130 L 714 178 L 850 247 L 987 486 L 987 356 L 850 356 L 714 356 L 577 356 L 441 356 L 304 356 L 168 356 L 31 356 Z" transform="translate(0,0)"></path></g><g fill="#669e45" stroke="#669e45" stroke-width="0" r="6" visibility="hidden" class="dxc-markers" opacity="1"></g><g fill="gray" opacity="0.001" stroke="gray" class="dxc-trackers" clip-path="url(#DevExpress_12)"><path d="M 31 486 L 168 239 L 304 230 L 441 208 L 577 130 L 714 178 L 850 247 L 987 486 L 987 356 L 850 356 L 714 356 L 577 356 L 441 356 L 304 356 L 168 356 L 31 356 Z" transform="translate(0,0)" stroke-width="0"></path></g></g></g><g class="dxc-constant-lines-group"><g class="dxc-val-constant-lines"></g><g class="dxc-val-constant-lines" transform="translate(0,0)"></g><g class="dxc-val-constant-lines" transform="translate(0,0)"></g><g class="dxc-arg-constant-lines"></g><g class="dxc-arg-constant-lines" transform="translate(0,0)"></g><g class="dxc-arg-constant-lines" transform="translate(0,0)"></g></g><g class="dxc-scale-breaks"></g><g class="dxc-labels-group"><g class="dxc-labels" clip-path="url(#DevExpress_12)" opacity="1" transform="translate(0,0)"></g></g><g class="dxc-crosshair-cursor"></g><g class="dxc-legend" clip-path="url(#DevExpress_9)"></g></svg>