<?xml version="1.0" encoding="UTF-8" standalone="yes" ?><svg xmlns:xlink="http://www.w3.org/1999/xlink" xmlns="http://www.w3.org/2000/svg" version="1.1" fill="none" stroke="none" stroke-width="0" class="dxc dxc-chart" style="line-height: normal; user-select: none; -webkit-tap-highlight-color: rgba(0, 0, 0, 0); display: block; overflow: hidden; background-color: rgb(255, 255, 255);" width="898" height="400" direction="ltr"><defs><filter id="DevExpress_7" x="-50%" y="-50%" width="200%" height="200%" transform="translate(0,0)"><feGaussianBlur in="SourceGraphic" result="gaussianBlurResult" stdDeviation="3"></feGaussianBlur><feOffset in="gaussianBlurResult" result="offsetResult" dx="2" dy="6"></feOffset><feFlood result="floodResult" flood-color="#d3d3d3" flood-opacity="0.8"></feFlood><feComposite in="floodResult" in2="offsetResult" operator="in" result="compositeResult"></feComposite><feComposite in="SourceGraphic" in2="compositeResult" operator="over"></feComposite></filter><clipPath id="DevExpress_9"><rect x="0" y="0" width="898" height="380" transform="translate(0,0)"></rect></clipPath><clipPath id="DevExpress_11"><rect x="31" y="52" width="844" height="304" transform="translate(0,0)"></rect></clipPath><clipPath id="DevExpress_12"><rect x="31" y="52" width="844" height="304" transform="translate(0,0)"></rect></clipPath></defs><rect x="0" y="0" width="898" height="380" transform="translate(0,0)" fill="gray" opacity="0.0001"></rect><g class="dxc-background"></g><g class="dxc-strips-group"><g class="dxc-val-strips" clip-path="url(#DevExpress_11)"></g><g class="dxc-arg-strips" clip-path="url(#DevExpress_11)"></g></g><g class="dxc-grids-group"><g class="dxc-val-grid"><path d="M 31 356 L 875 356" transform="translate(0,0.5)" stroke="#d3d3d3" stroke-width="1" opacity="1"></path><path d="M 31 313 L 875 313" transform="translate(0,0.5)" stroke="#d3d3d3" stroke-width="1" opacity="1"></path><path d="M 31 269 L 875 269" transform="translate(0,0.5)" stroke="#d3d3d3" stroke-width="1" opacity="1"></path><path d="M 31 226 L 875 226" transform="translate(0,0.5)" stroke="#d3d3d3" stroke-width="1" opacity="1"></path><path d="M 31 182 L 875 182" transform="translate(0,0.5)" stroke="#d3d3d3" stroke-width="1" opacity="1"></path><path d="M 31 139 L 875 139" transform="translate(0,0.5)" stroke="#d3d3d3" stroke-width="1" opacity="1"></path><path d="M 31 95 L 875 95" transform="translate(0,0.5)" stroke="#d3d3d3" stroke-width="1" opacity="1"></path><path d="M 31 52 L 875 52" transform="translate(0,0.5)" stroke="#d3d3d3" stroke-width="1" opacity="1"></path></g><g class="dxc-arg-grid"><path d="M 31 52 L 31 356" transform="translate(0.5,0)" stroke="#d3d3d3" stroke-width="1" opacity="1"></path><path d="M 152 52 L 152 356" transform="translate(0.5,0)" stroke="#d3d3d3" stroke-width="1" opacity="1"></path><path d="M 272 52 L 272 356" transform="translate(0.5,0)" stroke="#d3d3d3" stroke-width="1" opacity="1"></path><path d="M 393 52 L 393 356" transform="translate(0.5,0)" stroke="#d3d3d3" stroke-width="1" opacity="1"></path><path d="M 513 52 L 513 356" transform="translate(0.5,0)" stroke="#d3d3d3" stroke-width="1" opacity="1"></path><path d="M 634 52 L 634 356" transform="translate(0.5,0)" stroke="#d3d3d3" stroke-width="1" opacity="1"></path><path d="M 754 52 L 754 356" transform="translate(0.5,0)" stroke="#d3d3d3" stroke-width="1" opacity="1"></path><path d="M 875 52 L 875 356" transform="translate(0.5,0)" stroke="#d3d3d3" stroke-width="1" opacity="1"></path></g></g><g class="dxc-axes-group"><g class="dxc-val-axis" transform="translate(0,0)" clip-path="url(#DevExpress_9)"><g class="dxc-val-elements"><text style="white-space:pre;fill:#767676;font-family:'Segoe UI', 'Helvetica Neue', 'Trebuchet MS', Verdana, sans-serif;font-weight:400;font-size:12px;cursor:default;" x="31" y="356" transform="translate(-17,4)" text-anchor="middle">30</text><text style="white-space:pre;fill:#767676;font-family:'Segoe UI', 'Helvetica Neue', 'Trebuchet MS', Verdana, sans-serif;font-weight:400;font-size:12px;cursor:default;" x="31" y="313" transform="translate(-17,4)" text-anchor="middle">40</text><text style="white-space:pre;fill:#767676;font-family:'Segoe UI', 'Helvetica Neue', 'Trebuchet MS', Verdana, sans-serif;font-weight:400;font-size:12px;cursor:default;" x="31" y="269" transform="translate(-17,4)" text-anchor="middle">50</text><text style="white-space:pre;fill:#767676;font-family:'Segoe UI', 'Helvetica Neue', 'Trebuchet MS', Verdana, sans-serif;font-weight:400;font-size:12px;cursor:default;" x="31" y="226" transform="translate(-17,4)" text-anchor="middle">60</text><text style="white-space:pre;fill:#767676;font-family:'Segoe UI', 'Helvetica Neue', 'Trebuchet MS', Verdana, sans-serif;font-weight:400;font-size:12px;cursor:default;" x="31" y="182" transform="translate(-17,4)" text-anchor="middle">70</text><text style="white-space:pre;fill:#767676;font-family:'Segoe UI', 'Helvetica Neue', 'Trebuchet MS', Verdana, sans-serif;font-weight:400;font-size:12px;cursor:default;" x="31" y="139" transform="translate(-17,4)" text-anchor="middle">80</text><text style="white-space:pre;fill:#767676;font-family:'Segoe UI', 'Helvetica Neue', 'Trebuchet MS', Verdana, sans-serif;font-weight:400;font-size:12px;cursor:default;" x="31" y="95" transform="translate(-17,4)" text-anchor="middle">90</text><text style="white-space:pre;fill:#767676;font-family:'Segoe UI', 'Helvetica Neue', 'Trebuchet MS', Verdana, sans-serif;font-weight:400;font-size:12px;cursor:default;" x="31" y="52" transform="translate(-20,4)" text-anchor="middle">100</text></g><g class="dxc-val-line"></g><g class="dxc-val-title"></g></g><g class="dxc-arg-axis" transform="translate(0,0)" clip-path="url(#DevExpress_9)"><g class="dxc-arg-elements"><text style="white-space:pre;fill:#767676;font-family:'Segoe UI', 'Helvetica Neue', 'Trebuchet MS', Verdana, sans-serif;font-weight:400;font-size:12px;cursor:default;" x="31" y="356" transform="translate(0,21)" text-anchor="middle">8/2019</text><text style="white-space:pre;fill:#767676;font-family:'Segoe UI', 'Helvetica Neue', 'Trebuchet MS', Verdana, sans-serif;font-weight:400;font-size:12px;cursor:default;" x="152" y="356" transform="translate(0,21)" text-anchor="middle">9/2019</text><text style="white-space:pre;fill:#767676;font-family:'Segoe UI', 'Helvetica Neue', 'Trebuchet MS', Verdana, sans-serif;font-weight:400;font-size:12px;cursor:default;" x="272" y="356" transform="translate(0.5,21)" text-anchor="middle">10/2019</text><text style="white-space:pre;fill:#767676;font-family:'Segoe UI', 'Helvetica Neue', 'Trebuchet MS', Verdana, sans-serif;font-weight:400;font-size:12px;cursor:default;" x="393" y="356" transform="translate(0.5,21)" text-anchor="middle">11/2019</text><text style="white-space:pre;fill:#767676;font-family:'Segoe UI', 'Helvetica Neue', 'Trebuchet MS', Verdana, sans-serif;font-weight:400;font-size:12px;cursor:default;" x="513" y="356" transform="translate(0.5,21)" text-anchor="middle">12/2019</text><text style="white-space:pre;fill:#767676;font-family:'Segoe UI', 'Helvetica Neue', 'Trebuchet MS', Verdana, sans-serif;font-weight:400;font-size:12px;cursor:default;" x="634" y="356" transform="translate(0.5,21)" text-anchor="middle">13/2019</text><text style="white-space:pre;fill:#767676;font-family:'Segoe UI', 'Helvetica Neue', 'Trebuchet MS', Verdana, sans-serif;font-weight:400;font-size:12px;cursor:default;" x="754" y="356" transform="translate(0.5,21)" text-anchor="middle">14/2019</text><text style="white-space:pre;fill:#767676;font-family:'Segoe UI', 'Helvetica Neue', 'Trebuchet MS', Verdana, sans-serif;font-weight:400;font-size:12px;cursor:default;" x="875" y="356" transform="translate(0.5,21)" text-anchor="middle">15/2019</text></g><g class="dxc-arg-line"></g><g class="dxc-arg-title"></g></g></g><g class="dxc-strips-labels-group"><g class="dxc-val-axis-labels"></g><g class="dxc-arg-axis-labels"></g></g><g class="dxc-border"></g><g class="dxc-series-group"><g class="dxc-series"><g fill="#1db2f5" stroke="#1db2f5" stroke-width="0" class="dxc-markers" opacity="1" transform="translate(0,0) scale(1,1)"><rect x="31" y="356" width="42" height="0" transform="translate(0,0)" rx="0" ry="0" fill="#bf1200" stroke="#bf1200" stroke-width="0"></rect><rect x="110" y="239" width="84" height="117" transform="translate(0,0)" rx="0" ry="0" fill="#669e45" stroke="#669e45" stroke-width="0"></rect><rect x="230" y="230" width="84" height="126" transform="translate(0,0)" rx="0" ry="0" fill="#669e45" stroke="#669e45" stroke-width="0"></rect><rect x="351" y="208" width="84" height="148" transform="translate(0,0)" rx="0" ry="0" fill="#669e45" stroke="#669e45" stroke-width="0"></rect><rect x="471" y="130" width="84" height="226" transform="translate(0,0)" rx="0" ry="0" fill="#bf1200" stroke="#bf1200" stroke-width="0"></rect><rect x="592" y="178" width="84" height="178" transform="translate(0,0)" rx="0" ry="0" fill="#eea500" stroke="#eea500" stroke-width="0"></rect><rect x="712" y="247" width="84" height="109" transform="translate(0,0)" rx="0" ry="0" fill="#669e45" stroke="#669e45" stroke-width="0"></rect><rect x="833" y="356" width="42" height="0" transform="translate(0,0)" rx="0" ry="0" fill="#bf1200" stroke="#bf1200" stroke-width="0"></rect></g></g></g><g class="dxc-constant-lines-group"><g class="dxc-val-constant-lines"></g><g class="dxc-val-constant-lines" transform="translate(0,0)"></g><g class="dxc-val-constant-lines" transform="translate(0,0)"></g><g class="dxc-arg-constant-lines"></g><g class="dxc-arg-constant-lines" transform="translate(0,0)"></g><g class="dxc-arg-constant-lines" transform="translate(0,0)"></g></g><g class="dxc-scale-breaks"></g><g class="dxc-labels-group"><g class="dxc-labels" clip-path="url(#DevExpress_12)" opacity="1" transform="translate(0,0)"></g></g><g class="dxc-crosshair-cursor"></g><g class="dxc-legend" clip-path="url(#DevExpress_9)"></g></svg>