<?xml version="1.0" encoding="UTF-8" standalone="yes" ?><svg xmlns:xlink="http://www.w3.org/1999/xlink" xmlns="http://www.w3.org/2000/svg" version="1.1" fill="none" stroke="none" stroke-width="0" class="dxc dxc-chart" style="line-height: normal; user-select: none; -webkit-tap-highlight-color: rgba(0, 0, 0, 0); display: block; overflow: hidden; background-color: rgb(255, 255, 255);" width="863" height="400" direction="ltr"><defs><filter id="DevExpress_19" x="-50%" y="-50%" width="200%" height="200%" transform="translate(0,0)"><feGaussianBlur in="SourceGraphic" result="gaussianBlurResult" stdDeviation="3"></feGaussianBlur><feOffset in="gaussianBlurResult" result="offsetResult" dx="2" dy="6"></feOffset><feFlood result="floodResult" flood-color="#d3d3d3" flood-opacity="0.8"></feFlood><feComposite in="floodResult" in2="offsetResult" operator="in" result="compositeResult"></feComposite><feComposite in="SourceGraphic" in2="compositeResult" operator="over"></feComposite></filter><clipPath id="DevExpress_21"><rect x="0" y="0" width="863" height="380" transform="translate(0,0)"></rect></clipPath><clipPath id="DevExpress_23"><rect x="31" y="52" width="809" height="304" transform="translate(0,0)"></rect></clipPath><clipPath id="DevExpress_24"><rect x="31" y="52" width="809" height="304" transform="translate(0,0)"></rect></clipPath></defs><rect x="0" y="0" width="863" height="380" transform="translate(0,0)" fill="gray" opacity="0.0001"></rect><g class="dxc-background"></g><g class="dxc-strips-group"><g class="dxc-val-strips" clip-path="url(#DevExpress_23)"></g><g class="dxc-arg-strips" clip-path="url(#DevExpress_23)"></g></g><g class="dxc-grids-group"><g class="dxc-val-grid"><path d="M 31 356 L 840 356" transform="translate(0,0.5)" stroke="#d3d3d3" stroke-width="1" opacity="1"></path><path d="M 31 313 L 840 313" transform="translate(0,0.5)" stroke="#d3d3d3" stroke-width="1" opacity="1"></path><path d="M 31 269 L 840 269" transform="translate(0,0.5)" stroke="#d3d3d3" stroke-width="1" opacity="1"></path><path d="M 31 226 L 840 226" transform="translate(0,0.5)" stroke="#d3d3d3" stroke-width="1" opacity="1"></path><path d="M 31 182 L 840 182" transform="translate(0,0.5)" stroke="#d3d3d3" stroke-width="1" opacity="1"></path><path d="M 31 139 L 840 139" transform="translate(0,0.5)" stroke="#d3d3d3" stroke-width="1" opacity="1"></path><path d="M 31 95 L 840 95" transform="translate(0,0.5)" stroke="#d3d3d3" stroke-width="1" opacity="1"></path><path d="M 31 52 L 840 52" transform="translate(0,0.5)" stroke="#d3d3d3" stroke-width="1" opacity="1"></path></g><g class="dxc-arg-grid"><path d="M 31 52 L 31 356" transform="translate(0.5,0)" stroke="#d3d3d3" stroke-width="1" opacity="1"></path><path d="M 147 52 L 147 356" transform="translate(0.5,0)" stroke="#d3d3d3" stroke-width="1" opacity="1"></path><path d="M 262 52 L 262 356" transform="translate(0.5,0)" stroke="#d3d3d3" stroke-width="1" opacity="1"></path><path d="M 378 52 L 378 356" transform="translate(0.5,0)" stroke="#d3d3d3" stroke-width="1" opacity="1"></path><path d="M 493 52 L 493 356" transform="translate(0.5,0)" stroke="#d3d3d3" stroke-width="1" opacity="1"></path><path d="M 609 52 L 609 356" transform="translate(0.5,0)" stroke="#d3d3d3" stroke-width="1" opacity="1"></path><path d="M 724 52 L 724 356" transform="translate(0.5,0)" stroke="#d3d3d3" stroke-width="1" opacity="1"></path><path d="M 840 52 L 840 356" transform="translate(0.5,0)" stroke="#d3d3d3" stroke-width="1" opacity="1"></path></g></g><g class="dxc-axes-group"><g class="dxc-val-axis" transform="translate(0,0)" clip-path="url(#DevExpress_21)"><g class="dxc-val-elements"><text style="white-space:pre;fill:#767676;font-family:'Segoe UI', 'Helvetica Neue', 'Trebuchet MS', Verdana, sans-serif;font-weight:400;font-size:12px;cursor:default;" x="31" y="356" transform="translate(-17,4)" text-anchor="middle">30</text><text style="white-space:pre;fill:#767676;font-family:'Segoe UI', 'Helvetica Neue', 'Trebuchet MS', Verdana, sans-serif;font-weight:400;font-size:12px;cursor:default;" x="31" y="313" transform="translate(-17,4)" text-anchor="middle">40</text><text style="white-space:pre;fill:#767676;font-family:'Segoe UI', 'Helvetica Neue', 'Trebuchet MS', Verdana, sans-serif;font-weight:400;font-size:12px;cursor:default;" x="31" y="269" transform="translate(-17,4)" text-anchor="middle">50</text><text style="white-space:pre;fill:#767676;font-family:'Segoe UI', 'Helvetica Neue', 'Trebuchet MS', Verdana, sans-serif;font-weight:400;font-size:12px;cursor:default;" x="31" y="226" transform="translate(-17,4)" text-anchor="middle">60</text><text style="white-space:pre;fill:#767676;font-family:'Segoe UI', 'Helvetica Neue', 'Trebuchet MS', Verdana, sans-serif;font-weight:400;font-size:12px;cursor:default;" x="31" y="182" transform="translate(-17,4)" text-anchor="middle">70</text><text style="white-space:pre;fill:#767676;font-family:'Segoe UI', 'Helvetica Neue', 'Trebuchet MS', Verdana, sans-serif;font-weight:400;font-size:12px;cursor:default;" x="31" y="139" transform="translate(-17,4)" text-anchor="middle">80</text><text style="white-space:pre;fill:#767676;font-family:'Segoe UI', 'Helvetica Neue', 'Trebuchet MS', Verdana, sans-serif;font-weight:400;font-size:12px;cursor:default;" x="31" y="95" transform="translate(-17,4)" text-anchor="middle">90</text><text style="white-space:pre;fill:#767676;font-family:'Segoe UI', 'Helvetica Neue', 'Trebuchet MS', Verdana, sans-serif;font-weight:400;font-size:12px;cursor:default;" x="31" y="52" transform="translate(-20,4)" text-anchor="middle">100</text></g><g class="dxc-val-line"></g><g class="dxc-val-title"></g></g><g class="dxc-arg-axis" transform="translate(0,0)" clip-path="url(#DevExpress_21)"><g class="dxc-arg-elements"><text style="white-space:pre;fill:#767676;font-family:'Segoe UI', 'Helvetica Neue', 'Trebuchet MS', Verdana, sans-serif;font-weight:400;font-size:12px;cursor:default;" x="31" y="356" transform="translate(0,21)" text-anchor="middle">8/2019</text><text style="white-space:pre;fill:#767676;font-family:'Segoe UI', 'Helvetica Neue', 'Trebuchet MS', Verdana, sans-serif;font-weight:400;font-size:12px;cursor:default;" x="147" y="356" transform="translate(0,21)" text-anchor="middle">9/2019</text><text style="white-space:pre;fill:#767676;font-family:'Segoe UI', 'Helvetica Neue', 'Trebuchet MS', Verdana, sans-serif;font-weight:400;font-size:12px;cursor:default;" x="262" y="356" transform="translate(0.5,21)" text-anchor="middle">10/2019</text><text style="white-space:pre;fill:#767676;font-family:'Segoe UI', 'Helvetica Neue', 'Trebuchet MS', Verdana, sans-serif;font-weight:400;font-size:12px;cursor:default;" x="378" y="356" transform="translate(0.5,21)" text-anchor="middle">11/2019</text><text style="white-space:pre;fill:#767676;font-family:'Segoe UI', 'Helvetica Neue', 'Trebuchet MS', Verdana, sans-serif;font-weight:400;font-size:12px;cursor:default;" x="493" y="356" transform="translate(0.5,21)" text-anchor="middle">12/2019</text><text style="white-space:pre;fill:#767676;font-family:'Segoe UI', 'Helvetica Neue', 'Trebuchet MS', Verdana, sans-serif;font-weight:400;font-size:12px;cursor:default;" x="609" y="356" transform="translate(0.5,21)" text-anchor="middle">13/2019</text><text style="white-space:pre;fill:#767676;font-family:'Segoe UI', 'Helvetica Neue', 'Trebuchet MS', Verdana, sans-serif;font-weight:400;font-size:12px;cursor:default;" x="724" y="356" transform="translate(0.5,21)" text-anchor="middle">14/2019</text><text style="white-space:pre;fill:#767676;font-family:'Segoe UI', 'Helvetica Neue', 'Trebuchet MS', Verdana, sans-serif;font-weight:400;font-size:12px;cursor:default;" x="840" y="356" transform="translate(0.5,21)" text-anchor="middle">15/2019</text></g><g class="dxc-arg-line"></g><g class="dxc-arg-title"></g></g></g><g class="dxc-strips-labels-group"><g class="dxc-val-axis-labels"></g><g class="dxc-arg-axis-labels"></g></g><g class="dxc-border"></g><g class="dxc-series-group"><g class="dxc-series"><g class="dxc-elements" stroke="#000000" stroke-width="8" clip-path="url(#DevExpress_24)"><path d="M 31 486 L 147 239 L 262 230 L 378 208 L 493 130 L 609 178 L 724 247 L 840 486" transform="translate(0,0)" stroke-width="8"></path></g><g fill="#000000" stroke="#000000" stroke-width="0" r="6" visibility="visible" class="dxc-markers" opacity="1"><circle cx="0" cy="0" r="10" fill="#669e45" stroke="#669e45" stroke-width="0" visibility="visible" transform="translate(147,239)"></circle><circle cx="0" cy="0" r="10" fill="#669e45" stroke="#669e45" stroke-width="0" visibility="visible" transform="translate(262,230)"></circle><circle cx="0" cy="0" r="10" fill="#669e45" stroke="#669e45" stroke-width="0" visibility="visible" transform="translate(378,208)"></circle><circle cx="0" cy="0" r="10" fill="#bf1200" stroke="#bf1200" stroke-width="0" visibility="visible" transform="translate(493,130)"></circle><circle cx="0" cy="0" r="10" fill="#eea500" stroke="#eea500" stroke-width="0" visibility="visible" transform="translate(609,178)"></circle><circle cx="0" cy="0" r="10" fill="#669e45" stroke="#669e45" stroke-width="0" visibility="visible" transform="translate(724,247)"></circle></g><g fill="gray" opacity="0.001" stroke="gray" class="dxc-trackers" clip-path="url(#DevExpress_24)"><path d="M 31 486 L 147 239 L 262 230 L 378 208 L 493 130 L 609 178 L 724 247 L 840 486" transform="translate(0,0)" stroke-width="12" fill="none"></path></g></g></g><g class="dxc-constant-lines-group"><g class="dxc-val-constant-lines"></g><g class="dxc-val-constant-lines" transform="translate(0,0)"></g><g class="dxc-val-constant-lines" transform="translate(0,0)"></g><g class="dxc-arg-constant-lines"></g><g class="dxc-arg-constant-lines" transform="translate(0,0)"></g><g class="dxc-arg-constant-lines" transform="translate(0,0)"></g></g><g class="dxc-scale-breaks"></g><g class="dxc-labels-group"><g class="dxc-labels" clip-path="url(#DevExpress_24)" opacity="1" transform="translate(0,0)"></g></g><g class="dxc-crosshair-cursor"></g><g class="dxc-legend" clip-path="url(#DevExpress_21)"></g></svg>